<svg width="24" height="24" viewBox="0 0 24 24" fill="none" xmlns="http://www.w3.org/2000/svg">
<path d="M13.9627 4.93433C12.9904 4.4018 11.872 4.19805 10.7744 4.3535C9.67677 4.50895 8.65888 5.01526 7.87271 5.79683L5.79521 5.85458V7.88183C5.01043 8.66606 4.5019 9.6842 4.34632 10.7827C4.19075 11.8812 4.39656 13.0005 4.93271 13.9718C6.32192 16.4924 8.39713 18.5676 10.9177 19.9568C12.9127 21.0518 15.3952 20.6993 17.0077 19.0943L19.0927 17.0093C19.8775 16.2251 20.386 15.207 20.5416 14.1085C20.6972 13.0099 20.4914 11.8906 19.9552 10.9193C18.566 8.39621 16.4876 6.32041 13.9627 4.93433Z" fill="#6D4534"/>
<path d="M16.6177 11.1523C15.8752 11.1523 15.1852 11.4373 14.6602 11.9623L11.9602 14.6623C11.4352 15.1873 11.1502 15.8773 11.1502 16.6198C11.1502 17.3623 11.4352 18.0523 11.9602 18.5773C12.4852 19.1023 13.1752 19.3873 13.9177 19.3873C14.6602 19.3873 15.3502 19.1023 15.8752 18.5773L18.5752 15.8773C19.1002 15.3523 19.3852 14.6623 19.3852 13.9198C19.3852 13.1773 19.1002 12.4873 18.5752 11.9623C18.0502 11.4448 17.3527 11.1523 16.6177 11.1523Z" fill="#C7474C"/>
<path d="M7.63274 2.21189C8.31524 2.99189 8.32274 4.17689 7.64024 4.96439C7.49774 5.12189 7.51274 5.35439 7.65524 5.50439L7.91024 5.75939L7.87274 5.79689L5.79524 7.88189L5.76224 7.91564L5.50274 7.65689C5.43152 7.58617 5.33603 7.54525 5.23571 7.54247C5.13538 7.53968 5.03777 7.57523 4.96274 7.64189C4.17524 8.32439 2.99024 8.31689 2.21024 7.63439C1.99519 7.44544 1.8212 7.21437 1.69903 6.95549C1.57686 6.6966 1.50911 6.41539 1.49997 6.12927C1.49083 5.84315 1.5405 5.5582 1.6459 5.29204C1.75129 5.02588 1.91019 4.78418 2.11274 4.58189C2.51024 4.17689 3.03524 3.97439 3.56024 3.96689C3.77774 3.96689 3.95774 3.78689 3.96524 3.56189C3.97274 3.03689 4.17524 2.51189 4.58024 2.10689C4.78357 1.9058 5.02583 1.74835 5.29217 1.6442C5.55851 1.54006 5.84332 1.49141 6.12913 1.50124C6.41494 1.51107 6.69572 1.57918 6.95428 1.70138C7.21283 1.82358 7.4437 1.9973 7.63274 2.21189ZM18.9952 16.3869C19.7902 15.6969 20.9827 15.6669 21.7777 16.3569C22.7002 17.1669 22.7377 18.5694 21.8902 19.4094C21.4852 19.8144 20.9602 20.0169 20.4352 20.0244C20.3284 20.0263 20.2265 20.0696 20.151 20.1451C20.0754 20.2207 20.0322 20.3226 20.0302 20.4294C20.0227 20.9619 19.8202 21.4794 19.4152 21.8844C19.2123 22.0877 18.9698 22.247 18.7026 22.3525C18.4355 22.458 18.1495 22.5074 17.8624 22.4975C17.5753 22.4877 17.2934 22.4188 17.0341 22.2953C16.7748 22.1717 16.5437 21.9961 16.3552 21.7794C15.6652 20.9844 15.6952 19.7919 16.3852 18.9969C16.4429 18.9323 16.4735 18.8479 16.4707 18.7614C16.4679 18.6748 16.4319 18.5927 16.3702 18.5319L13.9777 16.1394C13.6702 15.8319 13.6702 15.3294 13.9777 15.0219L15.0202 13.9794C15.3277 13.6719 15.8302 13.6719 16.1377 13.9794L18.5302 16.3719C18.6577 16.4994 18.8602 16.5069 18.9952 16.3869Z" fill="#F5E7D1"/>
</svg>
