<svg width="24" height="24" viewBox="0 0 24 24" fill="none" xmlns="http://www.w3.org/2000/svg">
<path fill-rule="evenodd" clip-rule="evenodd" d="M5.755 1.18945L8.26 4.77645V5.01245C8.26 5.67682 7.99608 6.31398 7.5263 6.78376C7.05652 7.25353 6.41937 7.51745 5.755 7.51745C5.09063 7.51745 4.45348 7.25353 3.9837 6.78376C3.51392 6.31398 3.25 5.67682 3.25 5.01245V4.77645L5.755 1.18945ZM23 11.9995C23 10.3426 21.6569 8.99945 20 8.99945H4C2.34315 8.99945 1 10.3426 1 11.9995V21.9995C1 22.5517 1.44772 22.9995 2 22.9995H22C22.5523 22.9995 23 22.5517 23 21.9995V11.9995ZM14.505 4.77645L12 1.18945L9.495 4.77645V5.01245C9.495 5.67682 9.75892 6.31398 10.2287 6.78376C10.6985 7.25353 11.3356 7.51745 12 7.51745C12.6644 7.51745 13.3015 7.25353 13.7713 6.78376C14.2411 6.31398 14.505 5.67682 14.505 5.01245V4.77645ZM18.255 1.18945L20.76 4.77645V5.01245C20.76 5.67682 20.4961 6.31398 20.0263 6.78376C19.5565 7.25353 18.9194 7.51745 18.255 7.51745C17.5906 7.51745 16.9535 7.25353 16.4837 6.78376C16.0139 6.31398 15.75 5.67682 15.75 5.01245V4.77645L18.255 1.18945Z" fill="#F5E7D1"/>
<path fill-rule="evenodd" clip-rule="evenodd" d="M23 12C23 10.3431 21.6569 9 20 9H4C2.34315 9 1 10.3431 1 12V13H3C3 13.6189 3.24585 14.2124 3.68347 14.65C4.12108 15.0877 4.71462 15.3335 5.3335 15.3335C5.95238 15.3335 6.54592 15.0877 6.98353 14.65C7.42115 14.2124 7.667 13.6189 7.667 13H9.667C9.667 13.6188 9.9128 14.2122 10.3503 14.6497C10.7878 15.0872 11.3812 15.333 12 15.333C12.6188 15.333 13.2122 15.0872 13.6497 14.6497C14.0872 14.2122 14.333 13.6188 14.333 13H16.333C16.333 13.6189 16.5789 14.2124 17.0165 14.65C17.4541 15.0877 18.0476 15.3335 18.6665 15.3335C19.2854 15.3335 19.8789 15.0877 20.3165 14.65C20.7542 14.2124 21 13.6189 21 13H23V12Z" fill="#C7474C"/>
</svg>
