<svg width="24" height="24" viewBox="0 0 24 24" fill="none" xmlns="http://www.w3.org/2000/svg">
<path d="M5.40601 2.40039H5.39041C5.31798 2.40192 5.24643 2.41656 5.17921 2.44359C5.08202 2.48207 4.99657 2.54527 4.93132 2.62694C4.86607 2.70861 4.82329 2.8059 4.80721 2.90919C4.78801 3.02199 4.20001 6.71439 4.20001 8.40039C4.20001 9.54039 4.73041 10.5568 5.55601 11.2144C5.85601 11.4556 6.00001 11.7172 6.00001 11.9356V12.5356C6.00001 12.5572 5.99881 12.5788 5.99641 12.6004C5.96401 12.9124 5.81521 14.3152 5.67481 15.7576C5.53681 17.1796 5.40001 18.6976 5.40001 19.2004C5.40001 19.8369 5.65287 20.4474 6.10296 20.8974C6.55304 21.3475 7.16349 21.6004 7.80001 21.6004C8.43653 21.6004 9.04698 21.3475 9.49707 20.8974C9.94716 20.4474 10.2 19.8369 10.2 19.2004C10.2 18.6964 10.0632 17.1796 9.92521 15.7576C9.82262 14.7051 9.71542 13.6531 9.60361 12.6016L9.60001 12.5356V11.9356C9.60001 11.716 9.74401 11.4556 10.044 11.2144C10.4669 10.8773 10.8084 10.4493 11.0431 9.96212C11.2779 9.47496 11.3999 8.94117 11.4 8.40039C11.4 6.71079 10.8084 3.00159 10.7928 2.90799C10.7752 2.79521 10.7257 2.6898 10.6503 2.60414C10.5748 2.51848 10.4765 2.45612 10.3668 2.42439C10.3165 2.40966 10.2644 2.40159 10.212 2.40039H10.188H10.1892C10.0293 2.40166 9.87642 2.46606 9.7638 2.57957C9.65119 2.69308 9.58801 2.8465 9.58801 3.00639V7.80639C9.58967 7.8844 9.57594 7.96196 9.54762 8.03466C9.5193 8.10736 9.47693 8.17377 9.42294 8.2301C9.36896 8.28643 9.3044 8.33157 9.23297 8.36295C9.16153 8.39433 9.08462 8.41134 9.00661 8.41299C8.92861 8.41465 8.85104 8.40092 8.77834 8.3726C8.70564 8.34427 8.63923 8.30191 8.5829 8.24792C8.52657 8.19393 8.48143 8.12938 8.45005 8.05795C8.41867 7.98651 8.40167 7.9096 8.40001 7.83159V3.00039C8.40001 2.84126 8.3368 2.68865 8.22428 2.57613C8.11175 2.4636 7.95914 2.40039 7.80001 2.40039C7.64088 2.40039 7.48827 2.4636 7.37575 2.57613C7.26323 2.68865 7.20001 2.84126 7.20001 3.00039V7.80039L7.20121 7.83879C7.19692 7.99633 7.13021 8.14571 7.01578 8.25407C6.90134 8.36243 6.74855 8.42089 6.59101 8.41659C6.43347 8.41229 6.28409 8.34559 6.17574 8.23116C6.06738 8.11672 6.00892 7.96393 6.01321 7.80639V3.00759C6.01321 2.84676 5.9494 2.6925 5.83579 2.57866C5.72218 2.46482 5.56684 2.40071 5.40601 2.40039ZM13.2 7.80039C13.2 6.36822 13.7689 4.99471 14.7816 3.98201C15.7943 2.96932 17.1678 2.40039 18.6 2.40039C18.7591 2.40039 18.9118 2.4636 19.0243 2.57613C19.1368 2.68865 19.2 2.84126 19.2 3.00039V11.374L19.224 11.6428C19.3175 12.721 19.4087 13.7994 19.4976 14.878C19.6464 16.6864 19.8 18.6712 19.8 19.2004C19.8 19.8369 19.5472 20.4474 19.0971 20.8974C18.647 21.3475 18.0365 21.6004 17.4 21.6004C16.7635 21.6004 16.153 21.3475 15.703 20.8974C15.2529 20.4474 15 19.8369 15 19.2004C15 18.6724 15.1536 16.6864 15.3024 14.878C15.3768 13.9648 15.4524 13.0816 15.5088 12.4276L15.5448 12.0004H15C14.5226 12.0004 14.0648 11.8107 13.7272 11.4732C13.3897 11.1356 13.2 10.6778 13.2 10.2004V7.80039Z" fill="#F5E7D1"/>
</svg>
