<svg width="24" height="24" viewBox="0 0 24 24" fill="none" xmlns="http://www.w3.org/2000/svg">
<path d="M14.0175 22.1388H9.96C5.2875 22.1388 1.5 18.3437 1.5 13.6712V9.71875H22.4775V13.6712C22.4775 18.3437 18.69 22.1388 14.0175 22.1388Z" fill="#B4ACBC"/>
<path d="M16.4775 3.71875H7.5C4.185 3.71875 1.5 6.40375 1.5 9.71875C1.5 13.0338 4.185 15.7187 7.5 15.7187H16.4775C19.7925 15.7187 22.4775 13.0338 22.4775 9.71875C22.4775 6.40375 19.7925 3.71875 16.4775 3.71875Z" fill="#F5E7D1"/>
<path d="M21.18 8.76673C21.18 8.69173 21.1725 8.61673 21.1725 8.53423C21.0375 6.72673 19.5825 5.27173 17.7825 5.14423C17.76 5.14423 17.7375 5.14423 17.715 5.13673C16.59 5.07673 15.5625 4.51423 14.8575 3.62923C14.5161 3.19855 14.0817 2.85062 13.5869 2.61145C13.0921 2.37228 12.5496 2.24805 12 2.24805C11.4504 2.24805 10.9079 2.37228 10.4131 2.61145C9.91829 2.85062 9.48393 3.19855 9.14251 3.62923C8.43751 4.51423 7.41001 5.07673 6.28501 5.13673C6.26251 5.13673 6.24001 5.13673 6.21751 5.14423C4.41751 5.27173 2.96251 6.72673 2.82751 8.53423C2.82001 8.60923 2.82001 8.69173 2.82001 8.76673C2.82001 11.5942 5.11501 13.8892 7.94251 13.8892H16.065C18.885 13.8892 21.18 11.5942 21.18 8.76673Z" fill="#316543"/>
<path d="M18.6225 9.17223C19.2176 8.48078 19.5499 7.60163 19.5609 6.6894C19.5718 5.77718 19.2608 4.89029 18.6825 4.18473C18.6299 4.11918 18.5635 4.06615 18.4879 4.02947C18.4123 3.9928 18.3295 3.97339 18.2455 3.97268C18.1615 3.97196 18.0784 3.98994 18.0022 4.02532C17.926 4.0607 17.8587 4.11259 17.805 4.17723L17.0197 5.08923L16.5525 7.20198L14.3505 8.19273L13.56 9.11223C13.3275 9.38223 13.395 9.79473 13.7025 9.98223C15.285 10.9197 17.37 10.6197 18.6225 9.17223Z" fill="#C7474C"/>
<path d="M20.4555 11.4448C20.1191 12.2203 19.5634 12.8806 18.8566 13.3443C18.1498 13.808 17.3229 14.055 16.4775 14.0548H7.50002C6.61585 14.0539 5.75303 13.7831 5.02689 13.2787C4.30075 12.7742 3.74591 12.0601 3.43652 11.2318C3.89855 10.6783 4.46715 10.2234 5.10854 9.89405C5.74992 9.56473 6.45098 9.36774 7.17002 9.31481C8.32502 9.23981 9.39752 9.51731 10.3125 10.0573C11.265 10.6198 12.4725 10.6198 13.425 10.0573C14.3699 9.49649 15.4644 9.23989 16.56 9.32231C18.141 9.43331 19.542 10.2448 20.4555 11.4448Z" fill="#9FBB60"/>
<path d="M5.98501 12.0059C7.73251 12.7784 9.75001 12.1634 10.7775 10.6259C10.9725 10.3334 10.86 9.92842 10.5375 9.77843L9.43276 9.28942L7.23526 9.22942L5.69251 7.63418L4.59001 7.14593C4.26001 6.99593 3.88501 7.18343 3.79501 7.52843C3.35251 9.32093 4.23751 11.2334 5.98501 12.0059Z" fill="#C7474C"/>
<path d="M17.04 5.0625C17.91 5.8125 18.0075 7.125 17.2575 7.995C16.5075 8.865 15.195 8.97 14.325 8.2125L17.04 5.0625ZM9.46502 9.3075C9.23405 9.80048 8.81904 10.1833 8.30906 10.3738C7.79907 10.5643 7.23473 10.5473 6.73712 10.3265C6.23952 10.1056 5.84829 9.69855 5.64739 9.19257C5.44649 8.68659 5.45192 8.12202 5.66252 7.62L9.46502 9.3075Z" fill="#983B3F"/>
<path d="M10.9275 7.86609C11.2915 7.86609 11.6406 7.72149 11.898 7.4641C12.1554 7.2067 12.3 6.8576 12.3 6.49359C12.3 6.12958 12.1554 5.78048 11.898 5.52309C11.6406 5.2657 11.2915 5.12109 10.9275 5.12109C10.5635 5.12109 10.2144 5.2657 9.95701 5.52309C9.69962 5.78048 9.55502 6.12958 9.55502 6.49359C9.55502 6.8576 9.69962 7.2067 9.95701 7.4641C10.2144 7.72149 10.5635 7.86609 10.9275 7.86609ZM18.1125 12.0361C18.4765 12.0361 18.8256 11.8915 19.083 11.6341C19.3404 11.3767 19.485 11.0276 19.485 10.6636C19.485 10.2996 19.3404 9.95048 19.083 9.69309C18.8256 9.4357 18.4765 9.29109 18.1125 9.29109C17.7485 9.29109 17.3994 9.4357 17.142 9.69309C16.8846 9.95048 16.74 10.2996 16.74 10.6636C16.74 11.0276 16.8846 11.3767 17.142 11.6341C17.3994 11.8915 17.7485 12.0361 18.1125 12.0361ZM11.5125 12.2386C11.5125 12.4188 11.477 12.5973 11.408 12.7638C11.3391 12.9303 11.238 13.0816 11.1105 13.2091C10.9831 13.3365 10.8318 13.4376 10.6653 13.5066C10.4987 13.5756 10.3203 13.6111 10.14 13.6111C9.95978 13.6111 9.7813 13.5756 9.61478 13.5066C9.44827 13.4376 9.29696 13.3365 9.16951 13.2091C9.04206 13.0816 8.94097 12.9303 8.87199 12.7638C8.80302 12.5973 8.76752 12.4188 8.76752 12.2386C8.76752 11.8746 8.91212 11.5255 9.16951 11.2681C9.42691 11.0107 9.77601 10.8661 10.14 10.8661C10.504 10.8661 10.8531 11.0107 11.1105 11.2681C11.3679 11.5255 11.5125 11.8746 11.5125 12.2386Z" fill="#F9C23C"/>
</svg>
