<svg width="83" height="83" viewBox="0 0 83 83" fill="none" xmlns="http://www.w3.org/2000/svg">
<path d="M45.032 55.8584L47.2618 55.8495C47.5045 55.8487 48.6454 55.7575 48.8034 56.0266C48.9355 56.2515 48.7961 56.4254 48.5777 56.5417C47.5049 56.5997 46.358 56.5283 45.2775 56.5523C44.8038 56.5628 44.5035 56.0979 45.032 55.8584Z" fill="#8B8A8A"/>
<path d="M42.7065 50.916C43.6715 51.0104 43.804 52.5002 42.7843 52.7811C41.7602 52.6806 41.6982 51.1401 42.7065 50.916Z" fill="#8B8A8A"/>
<path d="M50.4594 50.9409C51.5609 50.8371 51.7445 52.2754 50.8505 52.7549C49.7968 52.8157 49.644 51.4191 50.4594 50.9409Z" fill="#8B8A8A"/>
<path d="M19.6865 67.0749C20.0372 67.0656 20.8073 66.9764 20.9769 67.3403L20.9417 67.4137C20.6357 67.6447 20.1609 67.5734 19.7848 67.5567C19.7936 67.7448 19.7904 67.9462 19.7913 68.1359C19.7943 68.3673 19.8515 68.8601 19.5316 68.8889C19.199 68.6875 19.2405 68.0038 19.3191 67.671C19.342 67.5738 19.5518 67.5195 19.6382 67.4972C19.6165 67.2362 19.5874 67.2832 19.6865 67.0749Z" fill="#8B8A8A"/>
<path d="M18.5593 57.1919C18.8437 57.1867 19.4624 57.132 19.6707 57.2799C19.8015 57.5482 19.793 58.2602 19.7872 58.5772C19.7821 58.8548 19.7622 58.8933 19.5852 59.0501C18.972 58.8463 19.4465 58.1468 19.3199 57.7196C19.1018 57.5822 18.6059 57.8469 18.443 57.5012C18.4682 57.333 18.4699 57.3403 18.5593 57.1919Z" fill="#8B8A8A"/>
<path d="M19.4977 31.0137C19.5972 31.0491 19.5972 31.0548 19.6901 31.1094C19.8827 31.3933 19.7933 31.9479 19.7684 32.2954C20.0082 32.2901 20.5216 32.2666 20.5247 32.6107C20.4273 32.7225 20.4351 32.7216 20.2876 32.7769C20.014 32.7869 19.4827 32.8506 19.2778 32.7087C19.2137 32.413 19.2808 31.2472 19.4977 31.0137Z" fill="#8B8A8A"/>
<path d="M18.4332 47.2651C19.4738 47.2412 19.9418 47.3077 19.7666 48.673C19.7505 48.7991 19.6517 48.8331 19.5502 48.8931L19.3942 48.7962C19.2169 48.5316 19.2867 48.089 19.3029 47.7567C19.0305 47.766 18.2683 47.854 18.248 47.4718C18.3226 47.3482 18.3194 47.3559 18.4332 47.2651Z" fill="#8B8A8A"/>
<path d="M19.4874 41.0332C19.5869 41.0616 19.5897 41.0664 19.6843 41.1118C19.8749 41.34 19.7962 41.8993 19.7843 42.2085C19.6475 42.3155 19.5388 42.4375 19.4185 42.5631C19.1126 42.5635 18.7782 42.5838 18.4702 42.5968C18.3239 42.5445 18.232 42.4638 18.2078 42.3131C18.3523 42.0225 19.0399 42.0792 19.3078 42.0853C19.2821 41.6845 19.1944 41.3408 19.4874 41.0332Z" fill="#8B8A8A"/>
<path d="M19.5228 21.5352C19.601 21.5701 19.64 21.5934 19.7145 21.6358C19.8968 21.9073 19.8312 22.3235 19.8181 22.6656C19.6441 22.7701 19.5286 22.8657 19.3703 22.9902C19.1 23.007 18.7475 22.997 18.4703 22.9965L18.3635 22.9569C18.2628 22.8538 18.2724 22.8585 18.244 22.7149C18.3622 22.3681 19.0273 22.4815 19.3305 22.5093C19.3182 22.1656 19.2296 21.756 19.5228 21.5352Z" fill="#8B8A8A"/>
<path d="M51.8648 27.0302C51.9366 26.9271 52.0022 26.9123 52.121 26.8457C52.1676 27.05 52.2199 27.2476 52.4006 27.3692C52.8067 27.4358 53.0535 26.8914 53.3688 27.2788C53.4624 27.9067 52.5947 27.6445 52.3131 28.1615C52.1854 28.2231 52.2507 28.2137 52.11 28.1895C51.8827 27.9912 51.8255 27.3204 51.8648 27.0302Z" fill="#8B8A8A"/>
<path d="M18.6198 17.9125C19.4233 17.8452 19.3989 17.7974 19.8136 18.4309C19.824 18.7674 19.8585 19.217 19.7468 19.5318C19.1295 19.5972 19.3209 18.8525 19.3408 18.4101C19.0553 18.4097 18.7399 18.4668 18.5655 18.2205C18.5414 18.081 18.5688 18.0436 18.6198 17.9125Z" fill="#8B8A8A"/>
<path d="M19.1679 37.5781C19.5309 37.5763 20.0009 37.4819 20.2471 37.7498C20.2868 38.0184 20.0186 38.049 19.8078 38.0811C19.7556 38.231 19.7811 38.7226 19.784 38.9043C19.7093 39.0262 19.6876 39.0318 19.5768 39.1188C19.2537 39.075 19.2805 38.3749 19.2708 38.111C19.1093 38.0068 18.9993 37.9716 18.97 37.7781C19.0372 37.6541 19.0531 37.6558 19.1679 37.5781Z" fill="#8B8A8A"/>
<path d="M19.476 50.875C19.9372 51.012 19.803 51.4578 19.7925 51.8841C20.0686 51.8805 20.5868 51.8116 20.6685 52.1322C20.6251 52.2752 20.5912 52.2914 20.4813 52.3903C20.0999 52.4106 19.8619 52.4462 19.5434 52.1909C19.1648 51.8874 19.1652 51.2126 19.476 50.875Z" fill="#8B8A8A"/>
<path d="M18.5124 27.7367C18.714 27.7341 19.1533 27.7154 19.3144 27.7588C19.7246 27.8693 19.9234 28.6076 19.7567 28.9708C19.7017 29.0907 19.6136 29.1024 19.5114 29.1479C19.4277 29.0938 19.4364 29.0938 19.3648 29.0208C19.2778 28.7691 19.3158 28.5153 19.3277 28.2437C19.016 28.2483 18.5953 28.2952 18.3463 28.1364C18.235 27.9175 18.3167 27.833 18.5124 27.7367Z" fill="#8B8A8A"/>
<path d="M36.9246 40.0566C37.2823 40.1439 37.5596 40.0416 37.8464 40.2147C37.9284 40.3503 37.9011 40.2742 37.8892 40.4634C37.694 40.7372 37.4958 40.4971 37.2694 40.6351L37.2545 41.1461C37.2561 41.3476 37.2623 41.4067 37.1193 41.5591C36.9742 41.5899 37.0445 41.596 36.9024 41.5291C36.6137 41.1717 36.6931 40.4094 36.9246 40.0566Z" fill="#8B8A8A"/>
<path d="M41.4092 26.1953C41.5333 26.2143 41.528 26.2142 41.6411 26.2703C41.8445 26.5492 41.4935 27.5112 41.2816 27.695C41.1292 27.7115 41.0319 27.6362 40.8913 27.5625C40.6518 27.4532 40.4667 27.4021 40.4617 27.0977C40.6165 26.8571 40.792 26.9645 41.0113 27.0618C41.1191 26.7537 41.2107 26.4557 41.4092 26.1953Z" fill="#8B8A8A"/>
<path d="M19.5014 11.8066C19.5667 11.8152 19.675 11.8218 19.717 11.8676C19.9337 12.1043 19.956 12.7787 19.7871 13.0081C19.5796 13.1113 19.1655 13.0806 18.9203 13.0794C18.7578 13.0766 18.67 13.0315 18.5556 12.9241C18.5265 12.7906 18.5209 12.8558 18.5879 12.7236C18.8759 12.511 18.9999 12.5588 19.3725 12.5718C19.3476 12.2167 19.2946 12.0847 19.5014 11.8066Z" fill="#8B8A8A"/>
<path d="M19.4487 61.0508C19.5705 61.0625 19.5637 61.0637 19.6746 61.1185C19.8536 61.3385 19.8733 61.9023 19.7087 62.1539C19.4958 62.3002 19.067 62.2435 18.7909 62.2334C18.6206 62.2245 18.5511 62.1969 18.4312 62.0826C18.4384 61.6688 19.0167 61.7349 19.2922 61.7584C19.2852 61.4269 19.2453 61.3134 19.4487 61.0508Z" fill="#8B8A8A"/>
<path d="M58.528 35.7266C58.7416 35.7917 58.7687 35.7846 58.8218 36.0039C58.7355 36.4133 58.0416 36.8859 57.6947 37.116C57.5034 37.0565 57.4504 37.0484 57.4183 36.8415C57.488 36.6237 58.2666 35.9853 58.528 35.7266Z" fill="#8B8A8A"/>
<path d="M66.6947 5.10547C67.014 5.23795 67.6199 5.80898 67.615 6.19448C67.5619 6.33718 67.5101 6.35367 67.3828 6.43845C67.1303 6.31805 66.4722 5.62203 66.4815 5.33457C66.5415 5.19078 66.5646 5.1864 66.6947 5.10547Z" fill="#8B8A8A"/>
<path d="M19.6995 2.76951C20.051 2.76393 20.608 2.6951 20.8299 3.02234C20.7738 3.30934 20.3169 3.28456 20.0914 3.28082C20.0421 3.2805 19.9785 3.28722 19.928 3.29088C19.8144 3.44923 19.6535 3.60718 19.4477 3.54307C19.2738 3.29458 19.474 2.91689 19.6995 2.76951Z" fill="#8B8A8A"/>
<path d="M13.9018 17.1602C14.0346 17.1726 14.1046 17.1728 14.2067 17.2823C14.3833 17.4714 15.0793 17.7582 15.1587 17.9466C15.1671 18.1104 15.1557 18.119 15.0773 18.2702C14.6589 18.2175 13.9496 17.8967 13.8019 17.4619C13.7613 17.3426 13.843 17.2578 13.9018 17.1602Z" fill="#8B8A8A"/>
<path d="M35.6843 2.76708C35.9821 2.76226 36.9686 2.67587 36.9743 3.07151C36.8782 3.20299 36.8851 3.19807 36.7445 3.27892C36.3747 3.28032 35.7414 3.38066 35.469 3.1736C35.3984 3.02398 35.4155 3.10272 35.432 2.92588C35.5345 2.79484 35.5051 2.83505 35.6843 2.76708Z" fill="#8B8A8A"/>
<path d="M6.65012 52.9102C6.77568 52.9134 6.76842 52.9122 6.8853 52.9584C7.12251 53.2291 7.08441 54.173 6.87416 54.4615C6.74787 54.4498 6.73794 54.4587 6.6284 54.4012C6.39281 54.1004 6.44303 53.2161 6.65012 52.9102Z" fill="#8B8A8A"/>
<path d="M25.386 33.9746C25.8225 34.1497 25.9544 35.2635 25.5981 35.5749C25.4821 35.5583 25.4782 35.5643 25.3767 35.5106C25.2426 35.3103 25.2074 34.5106 25.1992 34.2488C25.1955 34.1326 25.2997 34.0517 25.386 33.9746Z" fill="#8B8A8A"/>
<path d="M56.7731 37.0394C56.7849 37.039 56.8866 37.0285 56.9008 37.0357C57.6983 37.4413 56.273 37.8049 56.0987 37.8596C55.9634 37.8555 55.9387 37.8685 55.8284 37.7914C55.7413 37.6412 55.7526 37.7161 55.7628 37.566C55.9184 37.3278 56.4335 37.2182 56.7731 37.0394Z" fill="#8B8A8A"/>
<path d="M55.3822 39.5516C55.507 39.5432 55.6874 39.5221 55.762 39.6493C55.9322 39.9405 55.8722 40.6226 55.7186 40.9144C55.0552 41.0542 55.2959 39.9127 55.3822 39.5516Z" fill="#8B8A8A"/>
<path d="M6.60195 70.711C6.73864 70.7033 6.73662 70.6964 6.86501 70.7365C7.12852 70.9801 7.07085 71.8514 6.8982 72.1286C6.83619 72.1339 6.73844 72.1477 6.68539 72.1193C6.34423 71.9381 6.4926 70.9404 6.60195 70.711Z" fill="#8B8A8A"/>
<path d="M33.8002 2.76816C34.1468 2.76281 34.6386 2.71044 34.9213 2.87208C35.0574 3.0936 34.99 3.16326 34.7904 3.27743C34.4415 3.28312 33.8935 3.35943 33.6322 3.18107C33.5125 2.94947 33.6036 2.87153 33.8002 2.76816Z" fill="#8B8A8A"/>
<path d="M6.67471 49.2207C6.77915 49.2333 6.78896 49.2393 6.8891 49.2754C7.1246 49.5413 7.10268 50.4288 6.82977 50.6975L6.65161 50.6424C6.3926 50.4094 6.43361 49.4866 6.67471 49.2207Z" fill="#8B8A8A"/>
<path d="M6.65127 51.0957C6.91194 51.1123 6.98935 51.1682 7.01971 51.4475C7.0565 51.7863 7.07681 52.2718 6.85893 52.5425L6.67461 52.5036C6.39279 52.2463 6.4244 51.3725 6.65127 51.0957Z" fill="#8B8A8A"/>
<path d="M31.9805 2.76629C32.2935 2.76255 33.1403 2.67851 33.19 3.05826C33.1045 3.19527 33.1119 3.19192 32.9786 3.27949C32.6234 3.28233 32.1023 3.36538 31.8313 3.18456C31.6962 2.95249 31.7669 2.86837 31.9805 2.76629Z" fill="#8B8A8A"/>
<path d="M6.62993 54.8574C6.73421 54.8599 6.76554 54.868 6.86888 54.8882C7.13713 55.1265 7.07906 56.0165 6.87164 56.2925C6.76444 56.2657 6.62827 56.2568 6.57461 56.1446C6.42714 55.8358 6.44861 55.1379 6.62993 54.8574Z" fill="#8B8A8A"/>
<path d="M6.67068 56.6387C6.77504 56.6512 6.78837 56.6573 6.88892 56.6909C7.11936 56.9572 7.11267 57.8448 6.82452 58.1005C6.78018 58.0867 6.61738 58.0377 6.59919 58.0012C6.43213 57.6685 6.42103 56.9187 6.67068 56.6387Z" fill="#8B8A8A"/>
<path d="M6.74442 47.4023C6.82013 47.4392 6.85239 47.4615 6.92355 47.5069C7.06771 47.7412 7.05571 48.2169 7.01215 48.4836C6.96627 48.7645 6.97968 48.7312 6.77591 48.8885C6.36403 48.6952 6.49032 48.0869 6.521 47.7059C6.53579 47.5223 6.60671 47.5 6.74442 47.4023Z" fill="#8B8A8A"/>
<path d="M38.0417 2.77537C38.3236 2.76719 38.6135 2.70768 38.73 3.02217C38.6089 3.35507 38.2994 3.29065 38.0045 3.28393C37.7191 3.29234 37.5015 3.34362 37.3698 3.05105C37.4649 2.71251 37.7542 2.77119 38.0417 2.77537Z" fill="#8B8A8A"/>
<path d="M6.6893 45.6172C6.75115 45.6314 6.89603 45.667 6.92254 45.7197C7.09417 46.0618 7.12169 46.8375 6.81737 47.0875C6.36987 46.9412 6.49425 46.4614 6.50685 46.0735C6.51366 45.8652 6.5494 45.7736 6.6893 45.6172Z" fill="#8B8A8A"/>
<path d="M37.5666 77.4979C37.8722 77.4853 38.7286 77.384 38.7876 77.7678C38.7115 77.9084 38.7133 77.9007 38.5849 78C38.2519 78.0134 37.7654 78.0734 37.4859 77.9323C37.3299 77.7317 37.3727 77.6361 37.5666 77.4979Z" fill="#8B8A8A"/>
<path d="M65.2056 4.04102C65.5453 4.07725 66.0794 4.42745 66.2549 4.72585C66.2687 4.89015 66.2654 4.83734 66.1657 5.0078C65.833 5.08614 65.1866 4.65363 65.0897 4.33772C65.0966 4.18676 65.1234 4.16524 65.2056 4.04102Z" fill="#8B8A8A"/>
<path d="M65.8274 75.2891C65.9566 75.2785 66.0053 75.3118 66.1244 75.362C66.3445 75.6968 65.602 76.128 65.3597 76.297C65.2523 76.3164 65.1789 76.2804 65.0735 76.2475C64.8202 75.927 65.5919 75.4568 65.8274 75.2891Z" fill="#8B8A8A"/>
<path d="M33.3843 30.6621C33.4462 30.6726 33.5221 30.6926 33.5847 30.7071C33.8542 30.9778 33.7176 31.8154 33.4506 32.0675L33.2579 32.0007C32.9991 31.7103 33.1423 30.9321 33.3843 30.6621Z" fill="#8B8A8A"/>
<path d="M41.0586 77.4893C41.363 77.4751 42.2035 77.4005 42.3049 77.7434C42.2518 77.886 42.2566 77.8763 42.1419 77.9772C41.8506 78.0182 40.9735 78.1389 40.9055 77.756C40.9476 77.602 40.9569 77.6052 41.0586 77.4893Z" fill="#8B8A8A"/>
<path d="M68.612 8.08789C68.6691 8.09673 68.7413 8.11508 68.7992 8.12785C69.0793 8.34864 69.3224 9.08446 69.0659 9.40945C68.9484 9.4073 68.9471 9.40519 68.8332 9.37269C68.6031 9.15988 68.4823 8.67781 68.462 8.36887C68.4531 8.23306 68.5285 8.18321 68.612 8.08789Z" fill="#8B8A8A"/>
<path d="M49.8859 77.5C50.2584 77.4984 50.6624 77.4145 50.9846 77.5608C51.1508 77.7602 51.0867 77.8595 50.9023 78.0013C50.555 78.0139 50.0561 78.0629 49.7615 77.8911C49.6744 77.7659 49.6825 77.8291 49.6954 77.7035C49.7724 77.5815 49.7704 77.5892 49.8859 77.5Z" fill="#8B8A8A"/>
<path d="M67.7941 6.63946C67.9214 6.62775 67.9173 6.62439 68.0401 6.65296C68.2971 6.84328 68.522 7.21321 68.5755 7.54018C68.5954 7.66298 68.5313 7.71283 68.462 7.803C68.4045 7.80398 68.2582 7.82007 68.2209 7.78464C67.9295 7.50659 67.5356 7.02658 67.7941 6.63946Z" fill="#8B8A8A"/>
<path d="M30.2257 2.77598C30.5488 2.76692 31.0227 2.70695 31.276 2.87037C31.3588 3.0169 31.3362 2.93807 31.3286 3.11964C31.2409 3.26188 31.2992 3.20202 31.1254 3.28107C30.7926 3.28169 30.2382 3.3684 30.0081 3.15661C29.9578 2.99713 29.966 3.07865 30.0008 2.90165C30.1053 2.77546 30.04 2.82645 30.2257 2.77598Z" fill="#8B8A8A"/>
<path d="M39.4021 2.77585C39.7589 2.76512 40.1409 2.72534 40.4634 2.88694C40.561 3.01619 40.5541 2.95415 40.5452 3.07567C40.4482 3.20416 40.4556 3.20063 40.316 3.27765C39.9801 3.28603 39.4224 3.36416 39.1843 3.16072C39.1297 3.00406 39.137 3.08263 39.1666 2.91553C39.291 2.7846 39.2183 2.834 39.4021 2.77585Z" fill="#8B8A8A"/>
<path d="M22.3528 22.4714C22.6186 22.4532 22.8852 22.439 23.0036 22.7122C22.9061 23.0624 22.622 23.0005 22.3166 23.0006C22.0393 23.006 21.8149 23.0505 21.6725 22.7754C21.7605 22.4425 22.068 22.4834 22.3528 22.4714Z" fill="#8B8A8A"/>
<path d="M34.0428 77.5001C34.3829 77.4973 34.8538 77.417 35.1232 77.5852C35.2731 77.8336 35.1817 77.9017 34.976 78.0059C34.6352 78.0059 34.1832 78.0878 33.9092 77.9212C33.8188 77.7753 33.8433 77.8539 33.8461 77.6719C33.9301 77.5252 33.8734 77.5876 34.0428 77.5001Z" fill="#8B8A8A"/>
<path d="M39.3135 77.5026C39.6606 77.49 40.108 77.4333 40.4087 77.5719C40.5654 77.7713 40.5164 77.8669 40.3259 78.0043C39.9777 78.0181 39.5284 78.0789 39.2336 77.9281C39.0754 77.7215 39.1178 77.6331 39.3135 77.5026Z" fill="#8B8A8A"/>
<path d="M46.4107 2.76974C46.7584 2.76243 47.233 2.72755 47.5358 2.89408C47.6306 3.01882 47.6188 2.95484 47.6043 3.08472C47.507 3.20139 47.5139 3.20223 47.3724 3.27759C47.0385 3.28793 46.5339 3.34994 46.2693 3.18704C46.1534 2.97283 46.2093 2.87625 46.4107 2.76974Z" fill="#8B8A8A"/>
<path d="M6.72062 19.5645C6.83495 19.5937 6.83122 19.5907 6.93067 19.6531C7.09278 19.9337 7.05408 20.4509 6.98693 20.7646C6.95929 20.8935 6.87215 20.9196 6.76532 20.9862C6.69618 20.9542 6.66202 20.9304 6.59721 20.8903C6.43304 20.6187 6.46972 20.0856 6.52978 19.7765C6.55543 19.6446 6.61841 19.6304 6.72062 19.5645Z" fill="#8B8A8A"/>
<path d="M6.66049 38.6816C6.73247 38.6936 6.88396 38.7124 6.91354 38.7682C7.11638 39.1514 7.11229 39.8283 6.81101 40.1071C6.33279 39.9702 6.4217 38.9528 6.66049 38.6816Z" fill="#8B8A8A"/>
<path d="M56.9409 77.4946C57.3235 77.4857 57.6911 77.4504 58.0477 77.5955C58.1567 77.7175 58.1389 77.6519 58.134 77.7897C58.0408 77.9214 58.0364 77.9165 57.9087 78.0028C57.5464 78.0154 57.1334 78.0571 56.806 77.9007C56.7059 77.7803 56.7213 77.8436 56.7273 77.7135C56.8137 77.5818 56.8201 77.5854 56.9409 77.4946Z" fill="#8B8A8A"/>
<path d="M44.6615 2.76838C45.0202 2.76505 45.4028 2.73654 45.7359 2.87286C45.8429 2.99162 45.8263 2.92743 45.8352 3.05792C45.7521 3.18383 45.7537 3.20036 45.6228 3.28061C45.2921 3.28902 44.7515 3.35137 44.4933 3.18258C44.3693 2.95265 44.4601 2.86878 44.6615 2.76838Z" fill="#8B8A8A"/>
<path d="M6.67727 33.457C7.2023 33.5343 7.0316 34.269 6.99058 34.6497C6.97648 34.7808 6.86775 34.8288 6.76999 34.8945C6.75257 34.8862 6.67285 34.857 6.6568 34.8406C6.37189 34.5485 6.45635 33.704 6.67727 33.457Z" fill="#8B8A8A"/>
<path d="M53.3806 77.4884C53.689 77.4751 54.5 77.3924 54.5908 77.7486C54.5539 77.8872 54.5547 77.8775 54.459 77.9869C54.1579 78.0141 53.3004 78.1348 53.2173 77.7571C53.2631 77.5991 53.2631 77.608 53.3806 77.4884Z" fill="#8B8A8A"/>
<path d="M42.3985 24.8281C42.5922 24.8543 42.6603 24.874 42.7219 25.0681C42.6814 25.3763 42.2562 25.801 42.026 26.0052C41.8299 25.9568 41.7821 25.9534 41.714 25.7564C41.7582 25.4146 42.1509 25.0779 42.3985 24.8281Z" fill="#8B8A8A"/>
<path d="M6.63793 36.9551C6.83813 36.969 6.78881 36.9374 6.92932 37.0411C7.08786 37.3362 7.09143 38.068 6.89589 38.3343C6.83262 38.3238 6.68052 38.3108 6.6434 38.2742C6.38832 38.023 6.44376 37.1943 6.63793 36.9551Z" fill="#8B8A8A"/>
<path d="M6.78361 72.6387C6.90653 72.6476 6.90779 72.6464 7.02353 72.6861C7.27995 72.9203 7.50447 73.5805 7.34058 73.9173C7.20416 73.9355 7.20591 73.9416 7.07358 73.9137C6.764 73.6932 6.57348 72.9742 6.78361 72.6387Z" fill="#8B8A8A"/>
<path d="M69.1619 59.4434C69.23 59.4502 69.3666 59.4494 69.4063 59.4912C69.6624 59.7595 69.5956 60.5611 69.4079 60.818C69.3224 60.8091 69.2636 60.7978 69.1785 60.7832C68.8924 60.5595 68.9723 59.7177 69.1619 59.4434Z" fill="#8B8A8A"/>
<path d="M6.72047 58.4375C7.09685 58.5352 7.04814 58.9068 7.03837 59.2489C7.02953 59.5577 7.02301 59.6801 6.78702 59.8762C6.72371 59.8426 6.66868 59.8065 6.60752 59.7688C6.4583 59.5326 6.46369 59.0961 6.50653 58.8245C6.54576 58.5757 6.5323 58.5802 6.72047 58.4375Z" fill="#8B8A8A"/>
<path d="M21.3608 2.77317C21.7266 2.76512 22.1173 2.72959 22.452 2.87844C22.5509 2.9965 22.5376 2.93449 22.5387 3.05907C22.4484 3.19611 22.4561 3.19345 22.3193 3.27971C21.9845 3.29188 21.5095 3.35158 21.2323 3.20178C21.1364 3.06373 21.1638 3.13992 21.1614 2.96038C21.2514 2.80659 21.1927 2.87193 21.3608 2.77317Z" fill="#8B8A8A"/>
<path d="M46.3629 77.5012C46.6851 77.4907 47.5252 77.3861 47.5953 77.7707C47.5248 77.9008 47.5313 77.9 47.4073 77.9949C47.0989 78.0095 46.2802 78.1274 46.2004 77.757C46.2518 77.6058 46.2482 77.6139 46.3629 77.5012Z" fill="#8B8A8A"/>
<path d="M26.6309 2.76832C26.9642 2.7707 27.4018 2.71619 27.6893 2.85546C27.8611 3.08392 27.7666 3.16987 27.5682 3.28007C27.2216 3.28029 26.7682 3.36408 26.4933 3.19154C26.4043 3.04288 26.4291 3.12271 26.4286 2.93964C26.5134 2.78983 26.4551 2.85216 26.6309 2.76832Z" fill="#8B8A8A"/>
<path d="M6.72136 42.1523C7.10021 42.2804 7.04461 42.5909 7.03966 42.9592C7.03565 43.2604 7.0192 43.3933 6.79034 43.587C6.70292 43.5461 6.67544 43.5234 6.59589 43.4671C6.45769 43.2275 6.46263 42.7428 6.51325 42.477C6.55617 42.2516 6.55954 42.2739 6.72136 42.1523Z" fill="#8B8A8A"/>
<path d="M44.6178 77.4983C44.899 77.491 45.7842 77.3885 45.821 77.7707C45.7529 77.9016 45.7594 77.9028 45.6383 77.9992C45.3302 78.0118 44.4719 78.1172 44.4103 77.7378C44.4901 77.5936 44.4869 77.6013 44.6178 77.4983Z" fill="#8B8A8A"/>
<path d="M32.2634 77.4973C32.5586 77.4953 33.1721 77.4009 33.3826 77.6124C33.4767 77.8516 33.3868 77.929 33.182 77.9898C32.9178 78.0084 32.0459 78.113 32.0447 77.7146C32.1351 77.5816 32.1299 77.5873 32.2634 77.4973Z" fill="#8B8A8A"/>
<path d="M49.804 45.5991C50.1056 45.5946 50.9992 45.5079 51.0247 45.8986C50.9558 46.0315 50.9473 46.0275 50.8342 46.1175C50.527 46.1264 49.6934 46.2248 49.6387 45.837C49.6954 45.6931 49.6885 45.702 49.804 45.5991Z" fill="#8B8A8A"/>
<path d="M58.7699 2.77476C59.0824 2.76708 59.5728 2.71559 59.8257 2.86201C59.961 3.06422 59.8775 3.17297 59.6915 3.27932C59.3709 3.28652 58.7971 3.35742 58.5701 3.16389C58.4911 2.94407 58.56 2.84907 58.7699 2.77476Z" fill="#8B8A8A"/>
<path d="M54.9948 43.8809C55.8735 43.9177 54.9863 44.8503 54.7107 45.0845C54.5429 45.0728 54.4939 45.0185 54.4254 44.8831C54.4331 44.6014 54.8157 44.1423 54.9948 43.8809Z" fill="#8B8A8A"/>
<path d="M6.67614 61.9492C7.12137 62.0359 7.03772 62.3825 7.03537 62.7804C7.03387 63.026 7.01478 63.2019 6.82049 63.3636C6.77709 63.3494 6.62151 63.2992 6.60205 63.2647C6.42312 62.9458 6.41502 62.2139 6.67614 61.9492Z" fill="#8B8A8A"/>
<path d="M49.9625 2.77258C50.3058 2.7734 50.7504 2.68965 51.0146 2.8704C51.0928 3.01788 51.0713 2.93884 51.0624 3.12059C50.9729 3.25665 51.0292 3.19631 50.8557 3.27825C50.5335 3.28779 50.0217 3.34879 49.7692 3.18132C49.6626 2.96189 49.7607 2.85694 49.9625 2.77258Z" fill="#8B8A8A"/>
<path d="M23.1363 2.77246C23.4855 2.76865 23.9065 2.73703 24.2186 2.90199C24.3108 3.02165 24.3006 2.96041 24.2925 3.08241C24.1963 3.21025 24.203 3.20482 24.0617 3.27953C23.7346 3.28808 23.2135 3.34757 22.9574 3.18585C22.8214 2.94527 22.9205 2.85176 23.1363 2.77246Z" fill="#8B8A8A"/>
<path d="M14.7517 77.4961C15.0894 77.4933 15.5666 77.428 15.8546 77.5683C16.002 77.7656 15.9497 77.8637 15.7664 77.9987C15.4586 78.012 14.6746 78.1271 14.5786 77.7547C14.6354 77.6007 14.6312 77.6088 14.7517 77.4961Z" fill="#8B8A8A"/>
<path d="M41.141 2.77293C41.4692 2.76486 41.9187 2.71344 42.1955 2.86195C42.2944 2.99379 42.2636 2.9196 42.2721 3.09927C42.2028 3.23628 42.2315 3.19126 42.0715 3.27634C41.7343 3.28075 41.2062 3.35573 40.9663 3.1681C40.8621 2.92613 40.9294 2.8599 41.141 2.77293Z" fill="#8B8A8A"/>
<path d="M58.6812 77.4996C59.0232 77.4895 59.5023 77.4311 59.788 77.5863C59.9335 77.7967 59.8824 77.8688 59.6867 77.9944C59.3535 78.0115 58.9017 78.0718 58.6119 77.9405C58.4465 77.7468 58.4972 77.6394 58.6812 77.4996Z" fill="#8B8A8A"/>
<path d="M28.4091 2.77172C28.7334 2.7662 29.2166 2.71593 29.481 2.87341C29.6208 3.09726 29.5528 3.16107 29.3519 3.27838C29.0074 3.28038 28.5303 3.3645 28.2609 3.19071C28.1782 3.04225 28.2005 3.12187 28.2081 2.93915C28.2964 2.79193 28.237 2.85165 28.4091 2.77172Z" fill="#8B8A8A"/>
<path d="M33.2451 32.3672C33.3003 32.368 33.4641 32.3684 33.5 32.4017C33.7685 32.6509 33.9131 33.4024 33.716 33.7037C33.6395 33.7081 33.5923 33.7035 33.5158 33.6994C33.1797 33.508 33.104 32.6964 33.2451 32.3672Z" fill="#8B8A8A"/>
<path d="M69.1469 18.2656C69.354 18.2924 69.3013 18.2577 69.4513 18.3707C69.6199 18.6918 69.6195 19.3413 69.4079 19.6381L69.198 19.6096C68.9033 19.4015 68.9609 18.5273 69.1469 18.2656Z" fill="#8B8A8A"/>
<path d="M55.1905 2.77113C55.546 2.76426 56.0084 2.73006 56.3196 2.89877C56.412 3.01998 56.4011 2.95705 56.3918 3.08414C56.3067 3.1992 56.3123 3.2018 56.1827 3.2778C55.8463 3.28672 55.3296 3.34729 55.0637 3.18319C54.9555 2.99103 55.0134 2.87746 55.1905 2.77113Z" fill="#8B8A8A"/>
<path d="M6.71613 40.4277C6.8388 40.4682 6.83273 40.4642 6.93421 40.5436C7.08631 40.8342 7.06162 41.3213 6.98547 41.6346C6.95589 41.7566 6.86705 41.7866 6.76958 41.8449C6.68966 41.8028 6.66798 41.7866 6.59361 41.7355C6.41923 41.4247 6.39434 40.6709 6.71613 40.4277Z" fill="#8B8A8A"/>
<path d="M28.7712 77.5002C29.1007 77.4897 29.568 77.4317 29.8386 77.5821C29.9811 77.8054 29.9181 77.8893 29.7111 78.004C29.3895 78.0157 28.8804 78.0806 28.6307 77.9164C28.5187 77.7057 28.5764 77.6068 28.7712 77.5002Z" fill="#8B8A8A"/>
<path d="M35.781 77.5005C36.079 77.4924 36.9685 77.3914 36.9952 77.772C36.9136 77.9082 36.9128 77.9013 36.7891 77.9876C36.4528 78.0087 36.0084 78.0768 35.7141 77.9422C35.553 77.7497 35.5973 77.6403 35.781 77.5005Z" fill="#8B8A8A"/>
<path d="M46.8476 40.3691C47.1568 40.3641 47.9835 40.2599 48.0759 40.6245C48.037 40.7716 48.0302 40.7675 47.9349 40.8786C47.6018 40.8899 46.8711 40.9961 46.7175 40.6561C46.7426 40.4936 46.7446 40.502 46.8476 40.3691Z" fill="#8B8A8A"/>
<path d="M6.62725 28.2676C6.71207 28.2746 6.76573 28.2848 6.85031 28.2986C7.13996 28.5236 7.08954 29.3731 6.8709 29.646C6.83625 29.6419 6.70546 29.6256 6.68427 29.6128C6.34684 29.4094 6.47012 28.5178 6.62725 28.2676Z" fill="#8B8A8A"/>
<path d="M55.197 77.5022C55.5002 77.4925 56.3508 77.4009 56.3841 77.7981C56.2969 77.9306 56.2961 77.9237 56.1705 78.006C55.8321 78.0153 55.3417 78.0761 55.0726 77.9103C54.9457 77.704 54.9964 77.6011 55.197 77.5022Z" fill="#8E8C8D"/>
<path d="M18.2777 77.4983C18.6115 77.4955 19.0905 77.4197 19.3566 77.585C19.4424 77.7285 19.4193 77.6507 19.4109 77.8314C19.3246 77.9712 19.3647 77.9246 19.197 78.002C18.8794 78.0138 18.424 78.0689 18.1582 77.9295C18.0057 77.7151 18.0779 77.6195 18.2777 77.4983Z" fill="#8B8A8A"/>
<path d="M6.59003 65.4881C6.69775 65.478 6.87615 65.4597 6.9386 65.5736C7.09338 65.8561 7.08118 66.5698 6.89986 66.8255L6.70557 66.817C6.38954 66.6083 6.44368 65.7787 6.59003 65.4881Z" fill="#8B8A8A"/>
<path d="M6.68342 31.709C7.10629 31.7976 7.04302 32.1947 7.03504 32.5616C7.02965 32.8097 7.01717 32.9708 6.82255 33.1365C6.7802 33.1223 6.63556 33.0769 6.61128 33.0378C6.42117 32.7311 6.41777 31.9607 6.68342 31.709Z" fill="#8B8A8A"/>
<path d="M26.9931 77.4958C27.2872 77.4889 28.1275 77.3872 28.1754 77.7705C28.1168 77.9091 28.1132 77.9043 28.0115 78.0056C27.6711 78.0068 27.1733 78.083 26.8977 77.9221C26.763 77.7118 26.8003 77.6222 26.9931 77.4958Z" fill="#8B8A8A"/>
<path d="M6.84011 7.5332L7.05624 7.5467C7.38678 7.78241 7.13166 8.59044 6.94446 8.84864C6.83852 8.84139 6.81875 8.8332 6.7152 8.80418C6.42438 8.53966 6.65072 7.81171 6.84011 7.5332Z" fill="#8B8A8A"/>
<path d="M6.67111 24.7852C6.80886 24.8065 6.83472 24.7955 6.93332 24.8924C7.08951 25.2169 7.11273 25.9282 6.84124 26.1891L6.64436 26.1313C6.39467 25.9021 6.42239 25.0478 6.67111 24.7852Z" fill="#8B8A8A"/>
<path d="M19.3743 76.1452C19.5033 76.1314 19.5081 76.1347 19.638 76.1533C19.9069 76.3422 19.8249 77.2119 19.7288 77.4899C19.5974 77.4939 19.5856 77.5 19.4538 77.4676C19.1665 77.2415 19.2436 76.4333 19.3743 76.1452Z" fill="#8B8A8A"/>
<path d="M69.2142 42.2891C69.2839 42.3061 69.378 42.3138 69.4161 42.362C69.6535 42.6639 69.6155 43.4461 69.3743 43.6808C69.3034 43.6674 69.2313 43.6508 69.1607 43.6354C68.8969 43.3707 68.9455 42.5667 69.2142 42.2891Z" fill="#8B8A8A"/>
<path d="M69.151 33.7012C69.2402 33.7053 69.2937 33.7159 69.382 33.7312C69.6661 33.9566 69.5993 34.7908 69.4072 35.0641C69.3071 35.0549 69.162 35.0682 69.1052 34.9692C68.9334 34.67 68.9772 33.9857 69.151 33.7012Z" fill="#8B8A8A"/>
<path d="M6.67688 60.1992C6.75125 60.2122 6.86716 60.2231 6.90631 60.2807C7.12358 60.6 7.09399 61.3607 6.84224 61.6027C6.77018 61.5865 6.64556 61.5642 6.60892 61.5074C6.39826 61.1812 6.43392 60.4562 6.67688 60.1992Z" fill="#8B8A8A"/>
<path d="M48.0666 45.556C48.3901 45.5475 49.2419 45.4514 49.3283 45.8324C49.2663 45.9657 49.2736 45.9641 49.1495 46.0581C48.8018 46.067 48.1323 46.1854 47.9597 45.8575C47.9649 45.6994 47.9828 45.6857 48.0666 45.556Z" fill="#8B8A8A"/>
<path d="M24.9861 2.77587C25.2628 2.7729 25.8063 2.70746 25.9943 2.91324C26.0725 3.15813 25.9401 3.22758 25.7448 3.27864C25.4601 3.2873 24.8781 3.36405 24.6766 3.14447C24.6478 2.97028 24.6447 3.05786 24.7131 2.87427C24.8433 2.77127 24.8011 2.80314 24.9861 2.77587Z" fill="#8B8A8A"/>
<path d="M69.1514 23.4062C69.2316 23.4104 69.3759 23.4169 69.4229 23.4753C69.6519 23.7597 69.6227 24.528 69.3876 24.7612L69.1968 24.7292C68.9033 24.4964 68.9605 23.6707 69.1514 23.4062Z" fill="#8B8A8A"/>
<path d="M23.5045 77.4998C23.8074 77.4921 24.6003 77.39 24.6971 77.7466C24.6366 77.9026 24.6408 77.8945 24.5114 78.0019C24.2229 78.0137 23.3481 78.1223 23.3101 77.7328C23.3834 77.5926 23.3887 77.5975 23.5045 77.4998Z" fill="#8B8A8A"/>
<path d="M69.1632 55.9941C69.2633 56.0039 69.414 56.0071 69.4659 56.1076C69.6248 56.4136 69.6013 57.0811 69.4153 57.3632L69.1988 57.3328C68.8884 57.1078 68.9719 56.2799 69.1632 55.9941Z" fill="#8B8A8A"/>
<path d="M59.4123 34.3066C59.5537 34.3195 59.6117 34.309 59.7134 34.4056C59.871 34.7253 59.4581 35.3398 59.2307 35.5574C59.0382 35.5418 59.005 35.5341 58.9134 35.3753C58.8943 35.0628 59.2295 34.5595 59.4123 34.3066Z" fill="#8B8A8A"/>
<path d="M6.70934 17.8184C6.84806 17.847 6.85812 17.837 6.95429 17.9443C7.08823 18.2786 7.11538 18.9809 6.8265 19.2345C6.47927 19.1145 6.47619 18.866 6.47858 18.5084C6.4804 18.2315 6.49876 18.0114 6.70934 17.8184Z" fill="#8B8A8A"/>
<path d="M56.977 2.76867C57.3166 2.77255 57.7507 2.71331 58.0429 2.85668C58.1896 3.05933 58.1304 3.16108 57.9363 3.27847C57.6056 3.28915 57.1107 3.35076 56.8477 3.18847C56.7249 2.97657 56.7683 2.87484 56.977 2.76867Z" fill="#8B8A8A"/>
<path d="M51.6298 77.5008C51.9755 77.4911 52.4931 77.4469 52.7857 77.6139C52.8675 77.7371 52.8606 77.6751 52.8456 77.7979C52.7622 77.9264 52.7597 77.9207 52.6402 78.0054C52.3423 78.0151 51.5277 78.1156 51.4576 77.7339C51.52 77.6017 51.5135 77.6009 51.6298 77.5008Z" fill="#8B8A8A"/>
<path d="M6.63129 14.3711C6.70922 14.3769 6.84928 14.3834 6.89378 14.4339C7.13249 14.7046 7.07514 15.5178 6.8753 15.7539C6.77933 15.7363 6.62573 15.7334 6.57738 15.6337C6.43165 15.3331 6.45584 14.6461 6.63129 14.3711Z" fill="#8B8A8A"/>
<path d="M19.9844 77.4991C20.2905 77.4922 21.0752 77.382 21.187 77.7204C21.1568 77.8764 21.162 77.8699 21.0627 77.9923C20.7468 78.009 19.9318 78.1297 19.8253 77.7581C19.8707 77.6053 19.87 77.6138 19.9844 77.4991Z" fill="#8B8A8A"/>
<path d="M48.6494 2.77464C48.9056 2.76468 49.2245 2.70517 49.3133 3.01832C49.2034 3.34655 48.9497 3.28801 48.6632 3.28165C48.3884 3.29198 48.1376 3.35035 47.9945 3.06886C48.0444 2.71388 48.3722 2.77252 48.6494 2.77464Z" fill="#8B8A8A"/>
<path d="M69.215 14.8164C69.6616 14.9395 69.564 15.3724 69.551 15.7534C69.5437 15.9684 69.5165 16.0615 69.3613 16.2165C69.2936 16.198 69.1716 16.1797 69.1376 16.1305C68.9062 15.7981 68.9471 15.0734 69.215 14.8164Z" fill="#8B8A8A"/>
<path d="M53.5013 2.77534C53.8235 2.76707 54.2442 2.71416 54.5097 2.86638C54.5988 3.00227 54.5721 2.92722 54.5733 3.10574C54.4902 3.25276 54.5461 3.19123 54.3812 3.27905C54.0408 3.28459 53.5236 3.36045 53.2866 3.16448C53.2241 2.99819 53.2355 3.08309 53.263 2.89871C53.364 2.78318 53.3263 2.81968 53.5013 2.77534Z" fill="#8B8A8A"/>
<path d="M42.8467 77.5028C43.1945 77.4907 43.6921 77.4465 43.9933 77.6114C44.0784 77.7342 44.0703 77.6722 44.0565 77.7966C43.9766 77.9202 43.9625 77.9194 43.8449 78.0017C43.4932 78.0147 43.0725 78.0556 42.7564 77.9004C42.6514 77.7723 42.6725 77.8412 42.6644 77.6965C42.7373 77.581 42.7377 77.5879 42.8467 77.5028Z" fill="#8B8A8A"/>
<path d="M69.1737 37.1523C69.2422 37.157 69.3841 37.1629 69.4213 37.2087C69.6592 37.498 69.6049 38.2682 69.3889 38.5129C69.3281 38.5046 69.2576 38.4893 69.1964 38.4778C68.8993 38.2369 68.948 37.435 69.1737 37.1523Z" fill="#8B8A8A"/>
<path d="M69.215 28.5098C69.7184 28.6177 69.6471 29.6201 69.3646 29.897C69.2941 29.8787 69.2272 29.855 69.1579 29.8322C68.9034 29.5731 68.9378 28.7786 69.215 28.5098Z" fill="#8B8A8A"/>
<path d="M21.7575 77.5003C22.068 77.4906 22.8453 77.3896 22.9508 77.7588C22.8842 77.8954 22.8914 77.895 22.7664 77.9955C22.418 78.0109 21.9287 78.0632 21.6278 77.8938C21.5376 77.7653 21.547 77.8294 21.5616 77.7029C21.6431 77.5809 21.6389 77.5882 21.7575 77.5003Z" fill="#8B8A8A"/>
<path d="M44.5769 45.4772C44.9128 45.4674 45.6824 45.3552 45.8405 45.6875C45.8283 45.8455 45.8154 45.8456 45.7291 45.9736C45.3809 45.9825 44.6984 46.0867 44.5007 45.7803C44.4946 45.6166 44.5051 45.6182 44.5769 45.4772Z" fill="#8B8A8A"/>
<path d="M67.9648 72.6816C68.7007 72.8369 68.0089 73.602 67.7427 73.8999C67.5384 73.8837 67.4983 73.8889 67.4103 73.6985C67.4205 73.3852 67.7573 72.9074 67.9648 72.6816Z" fill="#8B8A8A"/>
<path d="M42.7567 2.7981C43.1053 2.77153 43.8429 2.64549 44.0257 2.97142C44.0289 3.11833 44.0107 3.12929 43.947 3.2599C43.6009 3.29777 42.9193 3.40282 42.7085 3.10495C42.6891 2.9628 42.7101 2.93146 42.7567 2.7981Z" fill="#8B8A8A"/>
<path d="M6.67199 35.2031C6.73711 35.2172 6.89254 35.2496 6.92204 35.3062C7.1096 35.6665 7.12054 36.3544 6.80111 36.6172C6.75203 36.6002 6.63916 36.5631 6.61375 36.524C6.40224 36.1976 6.43887 35.4597 6.67199 35.2031Z" fill="#8B8A8A"/>
<path d="M13.6304 33.0195C13.7926 33.0648 13.8393 33.1012 13.9071 33.2528C13.9217 33.5251 13.4851 34.0646 13.3037 34.2721C13.2014 34.2559 13.1856 34.2476 13.0877 34.2102C12.8027 33.842 13.3568 33.2683 13.6304 33.0195Z" fill="#8B8A8A"/>
<path d="M69.1109 49.1932C69.1806 49.192 69.2941 49.1843 69.3541 49.2143C69.6892 49.3833 69.5652 50.2939 69.4542 50.5144C69.3192 50.5172 69.3127 50.5152 69.1798 50.4872C68.9014 50.2574 68.9792 49.4753 69.1109 49.1932Z" fill="#8B8A8A"/>
<path d="M69.1579 44.0332C69.245 44.0377 69.2961 44.0486 69.382 44.0648C69.6649 44.295 69.6086 45.1165 69.3938 45.3937C69.3301 45.3888 69.2552 45.3775 69.1907 45.3698C68.892 45.1607 68.9788 44.3035 69.1579 44.0332Z" fill="#8B8A8A"/>
<path d="M69.2118 38.8477C69.2661 38.8591 69.3877 38.8812 69.4173 38.9219C69.6499 39.243 69.6183 40.007 69.3695 40.25L69.1603 40.1945C68.9147 39.9509 68.9447 39.1072 69.2118 38.8477Z" fill="#8B8A8A"/>
<path d="M69.1534 25.1074C69.2256 25.1117 69.3828 25.1216 69.4209 25.1701C69.6467 25.4573 69.6308 26.2267 69.3828 26.4607L69.1984 26.4318C68.8981 26.2262 68.9727 25.3843 69.1534 25.1074Z" fill="#8B8A8A"/>
<path d="M23.4436 42.1393C23.7899 42.1279 24.4421 42.2779 24.5865 42.6365C24.592 42.7853 24.5632 42.8072 24.4806 42.9304C24.2307 42.947 23.4549 42.671 23.3488 42.414C23.3452 42.2783 23.3728 42.254 23.4436 42.1393Z" fill="#8B8A8A"/>
<path d="M69.1575 64.6191C69.2527 64.6305 69.3982 64.6224 69.4513 64.7148C69.626 65.0183 69.6001 65.7065 69.4039 65.9877C69.3338 65.9805 69.2588 65.9683 69.1883 65.9586C68.8928 65.7434 68.9792 64.8984 69.1575 64.6191Z" fill="#8B8A8A"/>
<path d="M6.72087 63.6973C6.77234 63.7175 6.90175 63.7548 6.92205 63.7982C7.087 64.1516 7.13632 64.8665 6.81388 65.1202C6.7537 65.1015 6.62579 65.0643 6.60261 65.0189C6.42441 64.6695 6.40561 63.9493 6.72087 63.6973Z" fill="#8B8A8A"/>
<path d="M46.3321 45.5126C46.6972 45.4976 47.3254 45.3866 47.5487 45.6893C47.5734 45.8405 47.5531 45.8636 47.4948 46.0022C47.1604 46.0131 46.392 46.1319 46.2324 45.8C46.2401 45.6387 46.2474 45.6431 46.3321 45.5126Z" fill="#8B8A8A"/>
<path d="M55.5983 37.7969C55.6878 37.8297 55.7057 37.8441 55.7875 37.8948C55.9351 38.1695 55.9038 38.7009 55.8378 39.0065C55.8098 39.1353 55.7385 39.1451 55.6299 39.2026C55.2797 39.0811 55.3263 38.7374 55.3361 38.4042C55.3446 38.1232 55.3737 37.9773 55.5983 37.7969Z" fill="#8B8A8A"/>
<path d="M69.1737 62.8906L69.3593 62.9162C69.6685 63.1411 69.6021 63.9662 69.4063 64.2503C69.3293 64.2406 69.1996 64.2414 69.1522 64.1924C68.8851 63.9176 68.9808 63.1484 69.1737 62.8906Z" fill="#8B8A8A"/>
<path d="M48.1546 77.503C48.4525 77.4932 49.3141 77.3879 49.3433 77.77C49.2723 77.9107 49.2675 77.905 49.1495 77.999C48.8209 78.0124 48.343 78.0724 48.0691 77.9285C47.9256 77.7417 47.9763 77.6302 48.1546 77.503Z" fill="#8B8A8A"/>
<path d="M51.7088 2.77061C52.0464 2.77892 52.4841 2.70135 52.7593 2.86881C52.8452 3.01558 52.8229 2.93604 52.8095 3.12041C52.7135 3.25972 52.7747 3.20306 52.6049 3.27906C52.2839 3.28696 51.7891 3.34579 51.541 3.1791C51.4296 2.95397 51.4932 2.85399 51.7088 2.77061Z" fill="#8B8A8A"/>
<path d="M69.1583 16.5547C69.2333 16.5594 69.3779 16.5691 69.4209 16.6194C69.6519 16.8903 69.6029 17.6802 69.4002 17.9175C69.2928 17.8985 69.1575 17.8982 69.1036 17.8041C68.984 17.5958 68.986 17.323 69.0112 17.0992L69.0209 17.0168C69.0452 16.7964 69.0391 16.7437 69.1583 16.5547Z" fill="#8B8A8A"/>
<path d="M69.1668 40.5938C69.2357 40.6023 69.3658 40.6035 69.4063 40.6464C69.6608 40.918 69.5951 41.7127 69.3966 41.9628C69.3313 41.9538 69.2584 41.938 69.1931 41.9259C68.8981 41.6965 68.9625 40.8738 69.1668 40.5938Z" fill="#8B8A8A"/>
<path d="M69.1551 13.1113C69.245 13.1171 69.2937 13.1294 69.3824 13.148C69.6576 13.3821 69.6288 14.199 69.3836 14.4658L69.196 14.4363C68.8953 14.1893 68.969 13.4105 69.1551 13.1113Z" fill="#8B8A8A"/>
<path d="M19.5364 10.1152C19.9689 10.241 19.8852 10.6265 19.8738 11.0128C19.8668 11.2502 19.8381 11.3709 19.6556 11.5324C19.2351 11.3985 19.3276 10.9531 19.3435 10.5834C19.3526 10.3706 19.3756 10.2639 19.5364 10.1152Z" fill="#8B8A8A"/>
<path d="M25.2485 77.5018C25.5795 77.4949 26.1147 77.4248 26.3667 77.6027C26.473 77.8341 26.4058 77.9176 26.1889 77.9926C25.8652 78.0108 25.4353 78.0789 25.1649 77.9342C25.0288 77.7332 25.065 77.6392 25.2485 77.5018Z" fill="#8B8A8A"/>
<path d="M30.4761 77.5003C30.8129 77.4894 31.2964 77.4343 31.5845 77.5741C31.7287 77.7622 31.6805 77.8675 31.4882 77.9802C31.1999 78.0041 30.3436 78.1293 30.3044 77.7309C30.3674 77.5944 30.3715 77.5992 30.4761 77.5003Z" fill="#8B8A8A"/>
<path d="M16.5363 77.4977C16.815 77.4904 17.6705 77.3903 17.7019 77.7701C17.6285 77.9078 17.6277 77.9018 17.5173 77.9998C17.1927 78.014 16.7057 78.0752 16.4376 77.9318C16.2919 77.7332 16.3331 77.6124 16.5363 77.4977Z" fill="#8B8A8A"/>
<path d="M69.1218 47.491C69.2256 47.4825 69.2596 47.4866 69.3642 47.4955C69.6576 47.6932 69.5988 48.5484 69.4404 48.8069C69.3621 48.8094 69.2519 48.8179 69.1887 48.7774C68.8811 48.5792 69.0091 47.7269 69.1218 47.491Z" fill="#8B8A8A"/>
<path d="M6.73405 23.0391C6.77365 23.053 6.88242 23.09 6.90253 23.1193C7.11918 23.435 7.08749 24.2115 6.85543 24.449C6.73296 24.4215 6.71403 24.4265 6.61126 24.3515C6.43792 24.074 6.46426 23.6116 6.52376 23.3032C6.55699 23.1309 6.60522 23.1295 6.73405 23.0391Z" fill="#8B8A8A"/>
<path d="M69.1781 45.7441C69.2535 45.7555 69.3589 45.7555 69.4059 45.8057C69.6584 46.0761 69.6057 46.8578 69.397 47.1083L69.1943 47.0718C68.8867 46.8493 68.9658 46.0238 69.1781 45.7441Z" fill="#8B8A8A"/>
<path d="M19.4405 59.3516C19.5192 59.3621 19.6493 59.3734 19.6869 59.4334C19.8952 59.7658 19.8746 60.5042 19.6094 60.7595C19.5615 60.7485 19.4306 60.7226 19.4035 60.6849C19.1769 60.3696 19.2299 59.6227 19.4405 59.3516Z" fill="#8B8A8A"/>
<path d="M41.1815 45.3565C41.4935 45.3508 42.2773 45.2657 42.3884 45.6264C42.3438 45.7682 42.3511 45.7658 42.2372 45.8736C41.93 45.8784 41.1418 45.9789 41.0299 45.6414C41.0652 45.4788 41.07 45.4865 41.1815 45.3565Z" fill="#8B8A8A"/>
<path d="M36.9119 38.6895C37.0185 38.6964 37.1732 38.695 37.224 38.8089C37.3833 39.1659 37.3973 39.7787 37.0379 40.0051L37.023 40.0264C36.9955 40.0128 36.9601 40.001 36.9286 39.9796C36.604 39.7595 36.7238 38.9439 36.9119 38.6895Z" fill="#8B8A8A"/>
<path d="M6.6378 68.9609L6.83245 68.9763C7.13191 69.1932 7.07472 70.0398 6.90532 70.3077C6.7103 70.3113 6.71829 70.3202 6.58807 70.2205C6.43439 69.9125 6.43532 69.2406 6.6378 68.9609Z" fill="#8B8A8A"/>
<path d="M6.68213 26.5332L6.84724 26.567C7.13628 26.8134 7.08976 27.6449 6.86702 27.9211C6.807 27.9085 6.65806 27.8916 6.62617 27.8471C6.41084 27.5466 6.41068 26.7904 6.68213 26.5332Z" fill="#8B8A8A"/>
<path d="M6.59553 10.9397C6.70223 10.9291 6.88084 10.9106 6.94106 11.0245C7.09677 11.3192 7.08096 12.0062 6.88854 12.2716C6.789 12.2679 6.76311 12.26 6.66418 12.2419C6.39163 12.0509 6.46961 11.1959 6.59553 10.9397Z" fill="#8B8A8A"/>
<path d="M40.157 40.1791C40.4747 40.1785 40.933 40.1388 41.1924 40.2872C41.3128 40.4849 41.252 40.5931 41.0578 40.694C40.7284 40.7 40.2108 40.7584 39.9589 40.576C39.8513 40.3314 39.948 40.2568 40.157 40.1791Z" fill="#8B8A8A"/>
<path d="M59.8937 32.6406C59.9529 32.656 60.0263 32.6828 60.0858 32.7023C60.3586 32.9545 60.1414 33.7508 59.9326 33.9993C59.7361 33.9542 59.7401 33.9793 59.6291 33.8508C59.5387 33.5265 59.6392 32.8684 59.8937 32.6406Z" fill="#8B8A8A"/>
<path d="M49.4717 23.8906C49.8097 23.9293 50.4144 24.2289 50.4853 24.5975C50.4642 24.7398 50.4326 24.761 50.3418 24.8706C50.0444 24.8353 49.4575 24.4636 49.3526 24.1737C49.3513 24.0375 49.3931 24.0026 49.4717 23.8906Z" fill="#8B8A8A"/>
<path d="M69.125 30.2681C69.247 30.2616 69.2944 30.2481 69.4043 30.3028C69.6438 30.569 69.598 31.2977 69.4444 31.5826C69.3723 31.5834 69.2888 31.578 69.2158 31.5754C68.8863 31.3888 68.9872 30.5486 69.125 30.2681Z" fill="#8B8A8A"/>
<path d="M69.1664 20.0078C69.2649 20.0141 69.286 20.0194 69.3828 20.0379C69.6673 20.2659 69.6073 21.0834 69.393 21.3637C69.3265 21.3508 69.1964 21.3391 69.1547 21.2973C68.8961 21.0393 68.9836 20.2569 69.1664 20.0078Z" fill="#8B8A8A"/>
<path d="M62.9588 76.9629C63.0804 76.9848 63.0788 76.975 63.1647 77.0606C63.2105 77.2401 63.2166 77.1574 63.1716 77.3183C62.9572 77.5672 62.5163 77.636 62.1831 77.7252C62.049 77.6899 62.0291 77.6563 61.9302 77.5615C61.8285 77.1781 62.6691 77.0391 62.9588 76.9629Z" fill="#8B8A8A"/>
<path d="M20.0272 47.2659C20.3611 47.2574 20.8217 47.2051 21.1017 47.3526C21.2335 47.5464 21.1995 47.659 20.9874 47.7547C20.6204 47.7741 20.2238 47.8227 19.8881 47.6679C19.79 47.5443 19.803 47.608 19.8125 47.4799C19.8954 47.3494 19.905 47.3526 20.0272 47.2659Z" fill="#8B8A8A"/>
<path d="M69.1664 54.2891C69.2345 54.2955 69.3828 54.3045 69.4197 54.3547C69.643 54.6575 69.6321 55.4007 69.3763 55.6455C69.3123 55.6366 69.243 55.6176 69.1798 55.6026C68.8981 55.3902 68.9727 54.5594 69.1664 54.2891Z" fill="#8B8A8A"/>
<path d="M69.2864 11.3848C69.3893 11.4235 69.3634 11.4133 69.4554 11.4774C69.6021 11.7398 69.5814 12.1768 69.5275 12.4658C69.4862 12.6867 69.4436 12.6799 69.273 12.7941C69.2155 12.7548 69.168 12.7148 69.1137 12.6711C68.9743 12.3778 68.9687 11.8996 69.0635 11.5908C69.1048 11.456 69.1762 11.4432 69.2864 11.3848Z" fill="#8B8A8A"/>
<path d="M25.3294 35.8066C25.3992 35.8344 25.4489 35.8624 25.5163 35.897C25.7418 36.2885 25.2852 36.8882 24.9878 37.1393C24.8855 37.104 24.8936 37.1014 24.7988 37.0435C24.7664 36.9848 24.7312 36.947 24.7358 36.8874C24.7559 36.6301 25.1392 35.9786 25.3294 35.8066Z" fill="#8B8A8A"/>
<path d="M39.4874 45.2656C39.8221 45.2895 40.5557 45.2352 40.6744 45.5684C40.6542 45.7126 40.6372 45.7159 40.5496 45.8294C40.2226 45.8391 39.4683 45.8991 39.3432 45.5582C39.3638 45.403 39.391 45.3856 39.4874 45.2656Z" fill="#8B8A8A"/>
<path d="M17.9285 67.078C18.2467 67.0342 19.0554 66.9548 19.1909 67.2895C19.1703 67.4378 19.1782 67.431 19.0886 67.5481C18.7462 67.5643 18.0644 67.6782 17.8591 67.3852C17.8438 67.221 17.8495 67.2283 17.9285 67.078Z" fill="#8B8A8A"/>
<path d="M13.1623 15.666C13.2284 15.6764 13.2876 15.6929 13.3527 15.7088C13.5162 15.8535 13.6407 16.2294 13.679 16.444C13.7375 16.7722 13.7873 16.786 13.5503 16.9949C13.1697 16.9712 13.0488 16.3164 13.0225 16.0098C13.0069 15.8284 13.0509 15.793 13.1623 15.666Z" fill="#8B8A8A"/>
<path d="M64.4154 76.2715C64.5552 76.2739 64.5515 76.2634 64.6614 76.3448C64.7517 76.5074 64.7384 76.4255 64.7246 76.5945C64.5669 76.8514 64.1325 77.0091 63.8439 77.144C63.7382 77.1546 63.7361 77.1428 63.6352 77.1015C63.5205 76.9523 63.5489 77.0326 63.5298 76.8587C63.6389 76.5953 64.1438 76.406 64.4154 76.2715Z" fill="#8B8A8A"/>
<path d="M46.1323 23.191C46.4699 23.1519 47.1613 23.0539 47.3773 23.338C47.3972 23.4965 47.3866 23.5065 47.325 23.6602C47.0146 23.6776 46.3029 23.7885 46.1031 23.521C46.0622 23.3696 46.0845 23.3388 46.1323 23.191Z" fill="#8B8A8A"/>
<path d="M12.8454 64.2988C13.0109 64.315 12.9733 64.2891 13.0952 64.3734C13.2682 64.6729 13.3457 65.3801 13.1003 65.6537C13.0194 65.6411 12.9729 65.6253 12.8929 65.603C12.6203 65.3173 12.571 64.6085 12.8454 64.2988Z" fill="#8B8A8A"/>
<path d="M6.62529 21.334C6.70318 21.3397 6.8524 21.3445 6.89532 21.3958C7.13394 21.6812 7.0813 22.4472 6.86347 22.6948C6.72652 22.6788 6.69086 22.6863 6.58962 22.5921C6.44271 22.2981 6.44457 21.612 6.62529 21.334Z" fill="#8B8A8A"/>
<path d="M67.0987 74.0371C67.2405 74.1125 67.2373 74.1052 67.3354 74.2296C67.4282 74.585 66.8888 75.0462 66.6197 75.2197C65.9822 74.8894 66.7789 74.3232 67.0987 74.0371Z" fill="#8B8A8A"/>
<path d="M12.8443 34.5668C13.0318 34.5715 12.9894 34.5451 13.133 34.6298C13.2865 34.8976 13.2945 35.6671 13.1335 35.9266C12.6771 35.9465 12.676 35.5064 12.7051 35.1532L12.7123 35.0734C12.7328 34.8343 12.7258 34.7763 12.8443 34.5668Z" fill="#8B8A8A"/>
<path d="M60.5053 2.77076C60.823 2.76407 61.2599 2.71754 61.5282 2.85487C61.6818 3.0627 61.6356 3.16229 61.4334 3.27862C61.1063 3.28998 60.6131 3.35671 60.3606 3.18891C60.2406 2.9613 60.2958 2.87558 60.5053 2.77076Z" fill="#8B8A8A"/>
<path d="M61.1793 77.4248C61.3738 77.3851 61.4143 77.4037 61.5472 77.5342C61.6336 77.9764 60.928 77.965 60.639 77.9906C60.453 78.0116 60.3841 77.9954 60.2524 77.8467C60.2236 77.7044 60.2155 77.7721 60.2864 77.6376C60.6001 77.4163 60.7833 77.4499 61.1793 77.4248Z" fill="#8B8A8A"/>
<path d="M7.49445 5.97852C7.62536 6.01491 7.62001 6.01463 7.7345 6.08948C7.92121 6.39895 7.54369 7.03065 7.33396 7.25205C7.2553 7.23304 7.13546 7.2097 7.08124 7.1547C6.80755 6.87709 7.31423 6.15842 7.49445 5.97852Z" fill="#8B8A8A"/>
<path d="M6.62234 67.2305L6.833 67.243C7.13931 67.4793 7.09071 68.3178 6.86769 68.5958C6.36981 68.5156 6.49512 68.0289 6.50173 67.6361C6.50477 67.455 6.51498 67.3788 6.62234 67.2305Z" fill="#8B8A8A"/>
<path d="M47.879 23.2949C48.2052 23.304 48.8829 23.4176 49.0348 23.7472C49.0397 23.9083 49.0255 23.9102 48.9497 24.0484C48.6583 24.0324 47.9353 23.8935 47.7931 23.608C47.7773 23.45 47.8004 23.4309 47.879 23.2949Z" fill="#8B8A8A"/>
<path d="M69.1591 52.5781C69.2373 52.5854 69.3573 52.5895 69.4075 52.645C69.6568 52.921 69.594 53.6647 69.4092 53.9281C69.3208 53.9236 69.2661 53.9147 69.1773 53.903C68.8989 53.6991 68.9727 52.8472 69.1591 52.5781Z" fill="#8B8A8A"/>
<path d="M69.1186 66.3789L69.3261 66.3834C69.6706 66.584 69.5976 67.4047 69.4387 67.6883C69.4031 67.6908 69.2588 67.6997 69.2357 67.692C68.856 67.5676 69.0104 66.5925 69.1186 66.3789Z" fill="#8B8A8A"/>
<path d="M6.59661 12.676C6.71005 12.6647 6.88529 12.6561 6.94515 12.777C7.09518 13.0802 7.0846 13.7427 6.87953 14.0096C6.78579 14.0057 6.76051 13.9983 6.66754 13.9812C6.38644 13.7588 6.47094 12.9587 6.59661 12.676Z" fill="#8B8A8A"/>
<path d="M62.1037 2.86914C62.4482 2.90351 63.097 2.93375 63.2214 3.29968C63.202 3.44605 63.1765 3.46368 63.0881 3.57868C62.7497 3.52345 62.0919 3.4999 61.9606 3.16752C61.9862 3.00455 61.9947 3.00012 62.1037 2.86914Z" fill="#8B8A8A"/>
<path d="M69.1619 26.8125C69.241 26.826 69.3589 26.8293 69.4071 26.8814C69.6527 27.1481 69.6183 27.9348 69.3917 28.1661L69.1798 28.121C68.8973 27.9057 68.9739 27.0901 69.1619 26.8125Z" fill="#8B8A8A"/>
<path d="M6.67977 9.18164L6.84626 9.21504C7.13368 9.46395 7.09627 10.2977 6.8664 10.5667C6.79231 10.5501 6.66348 10.538 6.62494 10.4857C6.3919 10.1698 6.44017 9.43773 6.67977 9.18164Z" fill="#8B8A8A"/>
<path d="M69.2029 35.4082C69.5976 35.5 69.5652 35.7992 69.566 36.166C69.5664 36.4063 69.5502 36.6236 69.3638 36.7856C69.3148 36.7728 69.1713 36.7458 69.1458 36.7105C68.9261 36.4068 68.9338 35.6768 69.2029 35.4082Z" fill="#8B8A8A"/>
<path d="M59.7426 31.0281C59.8261 31.0257 59.9882 31.0255 60.0421 31.0819C60.2978 31.3487 60.3132 32.0759 60.1041 32.3392C59.9655 32.3289 59.9635 32.3361 59.837 32.2662C59.6417 32.0026 59.5926 31.3142 59.7426 31.0281Z" fill="#8B8A8A"/>
<path d="M8.4461 75.5743C8.81466 75.5698 9.31343 76.0205 9.43197 76.3544C9.40834 76.5368 9.42585 76.4715 9.30216 76.63C8.9535 76.613 8.49623 76.1777 8.36732 75.864C8.32788 75.768 8.40079 75.6557 8.4461 75.5743Z" fill="#8B8A8A"/>
<path d="M12.9107 45.1641C13.0226 45.1677 13.018 45.1705 13.129 45.1945C13.3424 45.3622 13.5012 45.9167 13.5829 46.1768C13.6173 46.2863 13.5536 46.3434 13.4954 46.4269C13.0688 46.499 12.9653 46.0852 12.862 45.731C12.7932 45.4948 12.7746 45.3772 12.9107 45.1641Z" fill="#8B8A8A"/>
<path d="M21.5378 67.08C21.8719 67.0695 22.2806 67.0188 22.5703 67.1594C22.7329 67.3625 22.6826 67.4504 22.4889 67.5805C22.1282 67.5963 21.7081 67.6417 21.3854 67.4752C21.294 67.356 21.305 67.418 21.3108 67.294C21.4 67.1574 21.4055 67.1635 21.5378 67.08Z" fill="#8B8A8A"/>
<path d="M53.7478 40.536C54.031 40.5291 54.947 40.4439 54.9478 40.8342C54.8724 40.9534 54.8781 40.9489 54.7682 41.0365C54.4704 41.045 53.6371 41.1431 53.5544 40.7755C53.6148 40.6296 53.6278 40.6328 53.7478 40.536Z" fill="#8B8A8A"/>
<path d="M38.9507 26.5488C39.2773 26.5566 40.0196 26.5631 40.1324 26.906C40.1055 27.0538 40.093 27.0527 39.9992 27.1652C39.6498 27.1414 38.968 27.1836 38.8293 26.8347C38.843 26.6784 38.861 26.6747 38.9507 26.5488Z" fill="#8B8A8A"/>
<path d="M11.3799 77.2754C11.7038 77.2977 12.4131 77.3273 12.5638 77.6454C12.5559 77.8047 12.5474 77.8006 12.4621 77.9287C12.1584 77.9461 11.4399 77.8991 11.2863 77.5895C11.2722 77.4395 11.3063 77.4067 11.3799 77.2754Z" fill="#8B8A8A"/>
<path d="M19.4084 71.0352C19.6208 71.0461 19.5749 71.0121 19.7154 71.1215C19.8602 71.4198 19.8769 72.1233 19.6586 72.3827C19.5675 72.3697 19.4126 72.3576 19.3643 72.2716C19.2062 71.99 19.2274 71.2901 19.4084 71.0352Z" fill="#8B8A8A"/>
<path d="M20.3323 57.1992C20.611 57.1907 21.4631 57.097 21.5004 57.4938C21.4148 57.613 21.4171 57.6251 21.2876 57.7021C20.9298 57.7106 20.3233 57.8014 20.1068 57.4594C20.1424 57.3155 20.2012 57.2879 20.3323 57.1992Z" fill="#8B8A8A"/>
<path d="M13.1681 53.3223C13.6906 53.379 13.511 53.7279 13.4225 54.115C13.3801 54.3006 13.329 54.4728 13.2379 54.6418C13.201 54.6402 13.0514 54.6345 13.0269 54.624C12.603 54.4376 13.0464 53.5156 13.1681 53.3223Z" fill="#8B8A8A"/>
<path d="M9.71925 3.67383C9.92278 3.69754 10.0168 3.76079 10.0209 3.96615C9.90478 4.22825 9.43953 4.49954 9.18571 4.6687C9.06023 4.67599 9.02283 4.64442 8.91117 4.5878C8.74274 4.22075 9.46701 3.83558 9.71925 3.67383Z" fill="#8B8A8A"/>
<path d="M55.4839 41.1973C55.6185 41.2366 55.6213 41.2256 55.7149 41.3249C55.8556 41.671 55.8693 42.3446 55.5658 42.6044C55.2027 42.4791 55.231 42.1614 55.244 41.8113C55.2541 41.5417 55.2691 41.3756 55.4839 41.1973Z" fill="#8B8A8A"/>
<path d="M43.763 23.8666C43.8502 23.8581 43.8583 23.8671 43.947 23.8806C44.0715 24.0088 44.0309 23.9359 44.0759 24.1064C43.9981 24.394 43.4708 24.6411 43.1973 24.8087C43.0222 24.7809 42.901 24.7253 42.8925 24.5382C43.0226 24.2348 43.4712 24.0154 43.763 23.8666Z" fill="#8B8A8A"/>
<path d="M22.6966 32.3066C23.0384 32.2994 23.8005 32.2203 23.9393 32.5986C23.9043 32.7563 23.893 32.7609 23.7796 32.8839C23.4077 32.7994 22.7424 32.8815 22.5773 32.5687C22.5853 32.4238 22.6062 32.4197 22.6966 32.3066Z" fill="#8B8A8A"/>
<path d="M14.2885 42.3398C14.4858 42.3808 14.5433 42.3792 14.5995 42.5814C14.5279 42.8339 14.0332 43.1459 13.7895 43.3433L13.7483 43.323C13.5527 43.2286 13.5022 43.2205 13.4858 42.9927C13.6118 42.6726 13.9866 42.4926 14.2885 42.3398Z" fill="#8B8A8A"/>
<path d="M16.2922 67.0413C16.6308 67.0316 17.0905 66.9753 17.3733 67.1309C17.5163 67.3424 17.4583 67.4203 17.2643 67.5459C16.967 67.556 16.1729 67.6582 16.1091 67.2756C16.1719 67.1345 16.1799 67.1386 16.2922 67.0413Z" fill="#8B8A8A"/>
<path d="M19.4873 49.1797C19.5453 49.2028 19.676 49.2421 19.7031 49.2863C19.8542 49.5331 19.8322 49.9781 19.7879 50.2533C19.7487 50.4968 19.7366 50.477 19.5665 50.6042C19.1239 50.4036 19.1906 49.4857 19.4873 49.1797Z" fill="#8B8A8A"/>
<path d="M19.4089 69.2913C19.5005 69.2908 19.6708 69.2844 19.7181 69.378C19.8658 69.6706 19.8529 70.3822 19.6714 70.6473C19.5771 70.6351 19.435 70.6388 19.3791 70.5496C19.2007 70.2655 19.234 69.5563 19.4089 69.2913Z" fill="#8B8A8A"/>
<path d="M38.1823 26.5586C38.3934 26.5917 38.4941 26.689 38.4533 26.9075C38.2769 27.1077 37.7651 27.1263 37.4555 27.1842C37.299 27.187 37.1802 27.1697 37.1437 26.9938C37.0643 26.6114 37.9827 26.5826 38.1823 26.5586Z" fill="#8B8A8A"/>
<path d="M69.213 31.9512C69.2774 31.9682 69.3812 31.9804 69.4152 32.0261C69.6515 32.3441 69.6182 33.0813 69.3573 33.3283C69.2993 33.3138 69.1684 33.2934 69.14 33.2542C68.9042 32.9263 68.9568 32.2077 69.213 31.9512Z" fill="#8B8A8A"/>
<path d="M69.1603 61.1777C69.23 61.1862 69.367 61.1883 69.4076 61.232C69.6665 61.5117 69.5863 62.2756 69.3889 62.5378C69.3285 62.5309 69.2564 62.5164 69.1956 62.5058C68.8981 62.287 68.9743 61.4521 69.1603 61.1777Z" fill="#8B8A8A"/>
<path d="M69.1599 57.7324C69.264 57.7397 69.4124 57.7426 69.4671 57.8487C69.6219 58.1499 69.596 58.7886 69.4112 59.0682C69.3123 59.0564 69.1575 59.0633 69.1036 58.9649C68.9354 58.6577 68.9605 58.0173 69.1599 57.7324Z" fill="#8B8A8A"/>
<path d="M69.1542 21.7051C69.2531 21.7165 69.4035 21.7084 69.459 21.8061C69.63 22.108 69.5883 22.7556 69.4128 23.0447L69.196 23.0186C68.8851 22.8166 68.982 21.9753 69.1542 21.7051Z" fill="#8B8A8A"/>
<path d="M52.0468 40.498C52.3439 40.4989 53.1273 40.4171 53.2136 40.7645C53.165 40.9043 53.1723 40.9019 53.0572 41.008C52.767 41.0178 51.8248 41.1487 51.8766 40.7089C51.8904 40.5918 51.963 40.5602 52.0468 40.498Z" fill="#8B8A8A"/>
<path d="M20.1044 22.5018C20.4453 22.4922 20.9455 22.4306 21.2193 22.5933C21.3088 22.7319 21.2826 22.6557 21.2814 22.8357C21.203 22.9656 21.2342 22.9234 21.0692 22.995C20.7787 23.0017 20.0315 23.0946 19.9307 22.7622C19.9727 22.6147 19.9951 22.6047 20.1044 22.5018Z" fill="#8B8A8A"/>
<path d="M35.1228 27.7891C35.3225 27.8558 35.3893 27.8879 35.4091 28.1021C35.3073 28.3877 34.9184 28.6946 34.6817 28.9114C34.4774 28.8644 34.4302 28.8623 34.3705 28.655C34.4441 28.3197 34.8566 28.008 35.1228 27.7891Z" fill="#8B8A8A"/>
<path d="M20.6138 12.583C20.9078 12.5804 21.3632 12.526 21.5647 12.7231C21.633 12.9525 21.5741 13.0234 21.3681 13.0901C21.0762 13.1002 20.5046 13.1821 20.3001 12.9527C20.2716 12.7859 20.2744 12.8473 20.334 12.6754C20.4336 12.5892 20.4825 12.597 20.6138 12.583Z" fill="#8B8A8A"/>
<path d="M69.1234 68.0342C69.2624 68.0305 69.2969 68.0184 69.4132 68.0958C69.5923 68.371 69.5376 69.0765 69.3564 69.3302C69.277 69.3319 69.2231 69.327 69.1437 69.3217C68.8336 69.0875 68.9159 68.3114 69.1234 68.0342Z" fill="#8B8A8A"/>
<path d="M19.488 8.45898L19.6796 8.46883C19.9853 8.68804 19.9099 9.53859 19.7466 9.81657C19.6432 9.81325 19.4955 9.81154 19.4375 9.7082C19.271 9.4113 19.3057 8.73453 19.488 8.45898Z" fill="#8B8A8A"/>
<path d="M63.6997 3.30664C64.0044 3.33917 64.6812 3.54914 64.7684 3.8877C64.7501 4.03792 64.7226 4.05179 64.6204 4.16154C64.3509 4.12308 63.6571 3.90352 63.5647 3.60923C63.57 3.46625 63.6174 3.42414 63.6997 3.30664Z" fill="#8B8A8A"/>
<path d="M19.4535 39.377C19.5217 39.3915 19.636 39.4011 19.6729 39.4486C19.9073 39.7505 19.8515 40.527 19.632 40.7747C19.546 40.7516 19.4123 40.7366 19.372 40.6491C19.2159 40.3109 19.1956 39.6598 19.4535 39.377Z" fill="#8B8A8A"/>
<path d="M43.4149 40.2795C43.7586 40.2602 44.4528 40.1654 44.6441 40.4645C44.6559 40.6193 44.6372 40.6367 44.5671 40.7721C44.2247 40.7826 43.5552 40.888 43.3501 40.5946C43.329 40.4392 43.3493 40.4189 43.4149 40.2795Z" fill="#8B8A8A"/>
<path d="M34.0192 29.082C34.1852 29.0961 34.2281 29.1223 34.3236 29.2437C34.3721 29.5551 34.0585 30.069 33.8813 30.3281C33.1167 30.2944 33.7698 29.3631 34.0192 29.082Z" fill="#8B8A8A"/>
<path d="M6.71711 43.8789C6.77778 43.902 6.91849 43.9494 6.94001 44.0045C7.08506 44.3746 7.13118 45.0319 6.78459 45.2868C6.46478 45.1523 6.47824 44.8536 6.48132 44.5269C6.48403 44.2351 6.4966 44.0718 6.71711 43.8789Z" fill="#8B8A8A"/>
<path d="M6.61872 30.0078C6.83068 30.03 6.78691 29.9948 6.93232 30.1076C7.09086 30.4203 7.09297 31.0846 6.86792 31.3636C6.68478 31.3436 6.58415 31.3346 6.52879 31.1291C6.4515 30.8419 6.4682 30.2585 6.61872 30.0078Z" fill="#8B8A8A"/>
<path d="M69.1559 50.8867C69.2539 50.9013 69.3998 50.8989 69.4537 50.9949C69.6211 51.2908 69.6114 51.9461 69.4112 52.216C69.3463 52.2087 69.196 52.2059 69.1587 52.1686C68.9066 51.9129 68.9706 51.1226 69.1559 50.8867Z" fill="#8B8A8A"/>
<path d="M7.53395 74.1934C7.84111 74.3085 8.21408 74.8754 8.23423 75.2001C8.16383 75.3626 8.18904 75.3103 8.01501 75.423C7.71288 75.2767 7.32127 74.7555 7.32585 74.4102C7.3791 74.2748 7.41075 74.2687 7.53395 74.1934Z" fill="#8B8A8A"/>
<path d="M50.2818 40.4521C50.5846 40.4462 51.4219 40.3526 51.4993 40.7266C51.4478 40.8656 51.4413 40.8612 51.3376 40.9588C51.0348 40.9665 50.2466 41.0642 50.142 40.7189C50.1854 40.573 50.1785 40.5746 50.2818 40.4521Z" fill="#8B8A8A"/>
<path d="M38.3887 40.1312C38.7133 40.1237 39.4387 40.0342 39.5751 40.3772C39.5432 40.5342 39.5359 40.5293 39.4356 40.6464C39.1072 40.6497 38.3836 40.7461 38.2475 40.4116C38.28 40.2487 38.2783 40.2576 38.3887 40.1312Z" fill="#8B8A8A"/>
<path d="M16.9099 57.1498C17.2431 57.1413 17.68 57.0939 17.9705 57.2284C18.1083 57.3982 18.0965 57.5328 17.9031 57.6487C17.6003 57.6616 16.8245 57.7828 16.7428 57.412C16.7918 57.2588 16.794 57.2669 16.9099 57.1498Z" fill="#8B8A8A"/>
<path d="M68.92 69.6558C69.1266 69.6545 69.153 69.6347 69.2956 69.7879C69.4018 70.1218 69.2563 70.5778 69.1088 70.8837C68.9682 70.8886 68.9654 70.8927 68.8219 70.8582C68.5508 70.5948 68.7668 69.9492 68.92 69.6558Z" fill="#8B8A8A"/>
<path d="M6.67153 16.1152C6.74598 16.1257 6.86663 16.1367 6.90703 16.1921C7.13062 16.4983 7.07534 17.2378 6.85289 17.4804C6.78691 17.4655 6.66922 17.4525 6.63197 17.4079C6.38423 17.1109 6.44996 16.3569 6.67153 16.1152Z" fill="#8B8A8A"/>
<path d="M68.9508 9.75962C69.0351 9.75184 69.1664 9.73247 69.2369 9.77247C69.5482 9.94897 69.5453 10.7638 69.4375 11.0185C69.3609 11.0211 69.2738 11.0183 69.1964 11.0178C68.8803 10.8506 68.8673 10.0473 68.9508 9.75962Z" fill="#8B8A8A"/>
<path d="M20.9878 32.3056C21.3018 32.2977 22.1146 32.1881 22.2273 32.5382C22.1963 32.6747 22.1804 32.6778 22.0924 32.7835C21.7662 32.7934 20.9877 32.9079 20.8487 32.5734C20.8834 32.4182 20.882 32.4267 20.9878 32.3056Z" fill="#8B8A8A"/>
<path d="M15.0244 32.3066C15.1697 32.31 15.202 32.3012 15.3295 32.3757C15.4013 32.5241 15.3852 32.4476 15.3763 32.6148C15.2345 32.8328 14.8066 32.892 14.4815 33.0416C14.3482 33.0731 14.2468 33.0531 14.1512 32.9588C14.093 32.4953 14.6823 32.3976 15.0244 32.3066Z" fill="#8B8A8A"/>
<path d="M22.0994 12.6055C22.3982 12.596 22.8904 12.5441 23.1547 12.6619C23.3288 12.7395 23.3122 12.9662 23.1391 13.0928C22.8295 13.1111 22.0933 13.2396 21.9727 12.8927C21.9977 12.7314 22.0001 12.7396 22.0994 12.6055Z" fill="#8B8A8A"/>
<path d="M9.84458 76.6094C10.1036 76.6337 10.8399 76.9474 10.9089 77.2424C10.8882 77.3891 10.8595 77.4037 10.7586 77.5103C10.465 77.4519 9.78091 77.2124 9.69702 76.8837C9.71169 76.7411 9.75003 76.7172 9.84458 76.6094Z" fill="#8B8A8A"/>
<path d="M68.5585 71.1855C68.6007 71.19 68.7235 71.2026 68.7559 71.2155C69.1907 71.3878 68.7004 72.2547 68.5459 72.4528C68.351 72.4338 68.3352 72.4411 68.2201 72.2964C68.1476 71.9819 68.3992 71.4534 68.5585 71.1855Z" fill="#8B8A8A"/>
<path d="M45.1288 40.3267C45.4749 40.3164 46.1428 40.2093 46.3345 40.5223C46.3362 40.6839 46.3309 40.6766 46.2519 40.8225C45.9175 40.8298 45.2123 40.9295 45.0271 40.6341C45.0231 40.4726 45.0421 40.4591 45.1288 40.3267Z" fill="#8B8A8A"/>
<path d="M55.4544 26.9082C55.7652 26.9467 56.5243 26.964 56.5555 27.3551C56.5012 27.4964 56.4895 27.4928 56.376 27.5868C56.0676 27.536 55.2927 27.501 55.2615 27.1355C55.3247 26.996 55.3364 26.9996 55.4544 26.9082Z" fill="#8B8A8A"/>
<path d="M13.2017 43.4668C13.3345 43.5158 13.3309 43.5069 13.4245 43.6103C13.5198 43.8822 13.28 44.6636 13.0706 44.8407C12.4958 44.6469 12.8764 43.7205 13.2017 43.4668Z" fill="#8B8A8A"/>
<path d="M41.7152 40.2535C42.0475 40.2214 42.7572 40.1316 42.9533 40.4213C42.9639 40.5857 42.9501 40.5857 42.8735 40.7268C42.5225 40.741 41.8631 40.8475 41.6508 40.5521C41.6317 40.4075 41.654 40.384 41.7152 40.2535Z" fill="#8B8A8A"/>
<path d="M42.8321 45.4332C43.1876 45.4113 43.8583 45.3084 44.0727 45.6083C44.0897 45.772 44.0779 45.7708 44.0066 45.9138C43.6767 45.9203 42.9963 46.0297 42.7912 45.7578C42.7499 45.6196 42.7835 45.5702 42.8321 45.4332Z" fill="#8B8A8A"/>
<path d="M59.2327 29.4824C59.3462 29.4823 59.3559 29.4893 59.4674 29.5188C59.7527 29.7441 60.0473 30.3381 59.82 30.6817C59.7531 30.6905 59.6137 30.7107 59.5667 30.6633C59.285 30.3793 59.0159 29.8516 59.2327 29.4824Z" fill="#8B8A8A"/>
<path d="M13.1989 24.0781C13.3776 24.1356 13.3325 24.0949 13.4442 24.2223C13.5203 24.5058 13.3446 25.2234 13.1106 25.4112C12.9854 25.3835 12.9735 25.3936 12.8797 25.3122C12.7015 24.9866 12.8971 24.2898 13.1989 24.0781Z" fill="#8B8A8A"/>
<path d="M13.4289 14.0215C13.6048 14.0758 13.5644 14.0366 13.6693 14.1596C13.7509 14.5111 13.553 15.1528 13.2488 15.3635C13.1514 15.3253 13.1563 15.3235 13.0772 15.2529C12.9249 14.9338 13.1196 14.1941 13.4289 14.0215Z" fill="#8B8A8A"/>
<path d="M14.221 22.8537C14.4133 22.8421 14.5111 22.8425 14.5662 23.0312C14.5058 23.299 14.0064 23.6659 13.7796 23.8633C13.5813 23.8561 13.479 23.8139 13.4512 23.6186C13.5673 23.2654 13.9229 23.0469 14.221 22.8537Z" fill="#8B8A8A"/>
<path d="M19.4463 74.4277C19.8545 74.4375 19.8225 74.8281 19.8154 75.1588C19.8094 75.4397 19.8126 75.6034 19.6026 75.7899C19.1632 75.6922 19.2691 75.2399 19.284 74.8845C19.2927 74.6762 19.3175 74.5943 19.4463 74.4277Z" fill="#8B8A8A"/>
<path d="M36.8697 37.1759C37.0566 37.1095 37.0098 37.0971 37.1824 37.1259C37.4336 37.3178 37.3549 38.0526 37.2697 38.3133C37.1406 38.3699 37.0963 38.4063 36.9616 38.3706C36.681 38.1672 36.7973 37.4736 36.8697 37.1759Z" fill="#8B8A8A"/>
<path d="M17.112 12.5423C17.4613 12.5296 17.8144 12.4901 18.1276 12.6628C18.2247 12.7976 18.2162 12.731 18.2076 12.8625C18.1312 12.9728 18.1341 12.9658 18.0229 13.0431C17.6723 13.0446 17.1931 13.1245 16.9291 12.9414C16.8224 12.6966 16.8986 12.6294 17.112 12.5423Z" fill="#8B8A8A"/>
<path d="M36.5563 26.9453C36.7189 26.9858 36.8136 27.0357 36.8366 27.2008C36.7285 27.4819 36.1887 27.6993 35.9109 27.8395C35.6975 27.7792 35.5943 27.715 35.6297 27.4957C35.8244 27.2317 36.2491 27.0812 36.5563 26.9453Z" fill="#8B8A8A"/>
<path d="M24.1582 17.7553L24.316 17.75C24.4512 17.8321 24.3938 17.7786 24.4772 17.9329C24.4571 18.3197 23.831 18.3828 23.5146 18.4457C23.3843 18.4357 23.354 18.4472 23.2501 18.3699C23.1744 18.2175 23.1883 18.2949 23.1989 18.1308C23.3544 17.9156 23.8284 17.8666 24.1582 17.7553Z" fill="#8B8A8A"/>
<path d="M36.921 41.8047C37.0374 41.8395 37.0344 41.8416 37.1368 41.9092C37.3079 42.1706 37.2983 42.5905 37.2241 42.892C37.1952 43.0092 37.095 43.0331 36.9871 43.0898C36.9065 43.0663 36.8963 43.0566 36.8204 43.0189C36.6626 42.751 36.6502 42.4248 36.6966 42.1257C36.7289 41.9178 36.7699 41.919 36.921 41.8047Z" fill="#8B8A8A"/>
<path d="M24.0143 66.8717C24.1471 66.8515 24.165 66.8705 24.3008 66.8993L24.3541 66.9815C24.3294 67.386 23.7486 67.4983 23.4361 67.5777C23.2888 67.5724 23.2116 67.5862 23.094 67.4999C23.0328 67.3394 23.0386 67.418 23.0639 67.2575C23.254 67.0136 23.6978 67.0184 24.0143 66.8717Z" fill="#8B8A8A"/>
<path d="M25.4863 63.9707L25.6523 64.0303C25.9108 64.2953 25.8662 65.084 25.5903 65.3567C25.4661 65.3199 25.4472 65.3251 25.3542 65.2331C25.2339 64.9539 25.2413 64.609 25.2845 64.3152C25.3194 64.0773 25.3219 64.0959 25.4863 63.9707Z" fill="#8B8A8A"/>
<path d="M20.2291 42.0859C20.5451 42.0859 21.0499 42.0288 21.264 42.2237C21.3007 42.3842 21.3025 42.3052 21.2475 42.4689C21.1173 42.5808 21.1927 42.5435 21.0032 42.5621C20.7128 42.5719 20.1841 42.6801 19.9754 42.4547C19.9318 42.3368 19.9461 42.3352 19.9782 42.2087C20.0759 42.0948 20.0518 42.1301 20.2291 42.0859Z" fill="#8B8A8A"/>
<path d="M53.9063 45.1387C54.1421 45.1687 54.2503 45.229 54.2005 45.4917C54.0076 45.7482 53.6359 45.8625 53.3316 45.9914C53.2059 45.9958 53.2145 45.9966 53.0981 45.9476C52.9956 45.8021 53.0195 45.8795 53.0102 45.7121C53.1289 45.4738 53.6011 45.332 53.9063 45.1387Z" fill="#8B8A8A"/>
<path d="M48.5582 40.4078C48.8776 40.4051 49.6286 40.3231 49.7688 40.6435C49.7607 40.789 49.7453 40.7927 49.6687 40.9139C49.336 40.9212 48.6288 41.0273 48.4594 40.7169C48.4638 40.5568 48.4739 40.5499 48.5582 40.4078Z" fill="#8B8A8A"/>
<path d="M16.6824 22.5048C16.9803 22.4947 17.7998 22.3881 17.8884 22.7496C17.8199 22.8975 17.8243 22.8898 17.6946 22.9902C17.3914 23.0017 16.6323 23.1007 16.5214 22.7436C16.5772 22.611 16.5711 22.6037 16.6824 22.5048Z" fill="#8B8A8A"/>
<path d="M15.1792 51.8022C15.4903 51.7835 15.886 51.7175 16.1422 51.8666C16.2356 52.015 16.2106 51.9351 16.2088 52.1191C16.1216 52.2691 16.1816 52.2135 16.0169 52.2853C15.676 52.3068 15.13 52.4 14.8995 52.1179L14.9162 52.0174C15.0187 51.8905 15.035 51.8869 15.1792 51.8022Z" fill="#8B8A8A"/>
<path d="M25.0128 23.4473C25.3551 23.5866 25.6777 24.1454 25.6465 24.5188C25.6376 24.6251 25.5273 24.6657 25.4466 24.7145C25.1571 24.6484 24.8548 23.9762 24.8182 23.6931C24.8511 23.5561 24.9014 23.5355 25.0128 23.4473Z" fill="#8B8A8A"/>
<path d="M13.0891 54.9746C13.4014 55.0869 13.4732 55.4581 13.5557 55.7596C13.6416 56.0741 13.6491 56.1195 13.4187 56.3124C13.0508 56.1422 12.8772 55.6064 12.892 55.2202C12.8967 55.1007 13.005 55.0419 13.0891 54.9746Z" fill="#8B8A8A"/>
<path d="M45.327 23.3075C45.5447 23.2948 45.5629 23.2958 45.6691 23.4665C45.6893 23.847 45.0936 23.898 44.7807 23.9812C44.5351 24.0171 44.3527 23.9214 44.4237 23.6482C44.6308 23.4257 45.0166 23.3801 45.327 23.3075Z" fill="#8B8A8A"/>
<path d="M25.3975 55.5176C25.5042 55.5228 25.5363 55.5301 25.642 55.5472C26.0159 55.8454 25.4838 56.4752 25.2429 56.7257C25.0767 56.7297 25.0457 56.7054 24.9495 56.5891C24.9041 56.3395 25.2591 55.7879 25.3975 55.5176Z" fill="#8B8A8A"/>
<path d="M15.7088 22.4722C15.9441 22.4673 16.0986 22.461 16.1897 22.6945C16.1028 23.0501 15.8125 22.9983 15.5255 22.9963C15.3083 23.0173 14.9543 23.084 14.8744 22.8154C15.0202 22.4842 15.4035 22.4948 15.7088 22.4722Z" fill="#8B8A8A"/>
<path d="M19.4379 72.7344C19.6333 72.7623 19.579 72.7283 19.716 72.8414C19.8631 73.1413 19.8693 73.8254 19.6452 74.0868C19.551 74.0633 19.3982 74.0462 19.3549 73.9474C19.2116 73.6199 19.2061 73.0156 19.4379 72.7344Z" fill="#8B8A8A"/>
<path d="M25.6789 15.0566C25.7485 15.069 25.8586 15.0736 25.9019 15.1206C26.1579 15.3979 26.0292 16.1522 25.83 16.4017C25.6914 16.385 25.656 16.3925 25.5538 16.2966C25.4079 15.9998 25.4592 15.3053 25.6789 15.0566Z" fill="#8B8A8A"/>
<path d="M14.5521 66.8965C14.8915 66.9427 15.549 66.9342 15.7377 67.2077C15.7586 67.3484 15.7312 67.3771 15.6692 67.504C15.3389 67.5259 14.6245 67.5311 14.4634 67.1956C14.4593 67.0335 14.4729 67.0331 14.5521 66.8965Z" fill="#8B8A8A"/>
<path d="M25.1545 65.6348C25.3549 65.6676 25.4119 65.6696 25.5044 65.8573C25.4981 66.2086 25.1338 66.5604 24.9006 66.8238C24.7054 66.8388 24.6613 66.8486 24.5718 66.667C24.5798 66.4303 24.9971 65.8909 25.1545 65.6348Z" fill="#8B8A8A"/>
<path d="M33.6935 34.0334C33.9898 34.0339 33.9448 34.0146 34.1408 34.2628C34.3092 34.476 34.3981 34.6783 34.4863 34.9331C34.5222 35.0368 34.4447 35.1217 34.3966 35.2008C34.0483 35.2442 33.938 35.0068 33.7774 34.6991C33.6431 34.4418 33.5882 34.3057 33.6935 34.0334Z" fill="#8B8A8A"/>
<path d="M58.2787 28.1797C58.6103 28.2422 59.0374 28.6801 59.1019 29.0178C59.1229 29.1262 59.018 29.2215 58.9547 29.2966L58.7926 29.2754C58.5324 29.0756 58.2026 28.7835 58.1324 28.4515C58.1539 28.3099 58.1872 28.288 58.2787 28.1797Z" fill="#8B8A8A"/>
<path d="M13.8579 46.5859C14.0912 46.6917 14.7532 47.0569 14.8116 47.3126C14.7855 47.4638 14.7543 47.4771 14.6435 47.5817C14.3099 47.4869 13.7279 47.2348 13.6703 46.8526C13.697 46.7132 13.7525 46.6832 13.8579 46.5859Z" fill="#8B8A8A"/>
<path d="M19.4852 19.873C19.5489 19.8854 19.6608 19.8934 19.697 19.9364C19.9445 20.2301 19.8818 20.9811 19.6654 21.2391C19.1894 21.1591 19.3098 20.6958 19.3181 20.3164C19.3226 20.1123 19.3432 20.0237 19.4852 19.873Z" fill="#8B8A8A"/>
<path d="M14.2955 52.1068C14.5159 52.0987 14.5921 52.1214 14.6119 52.333C14.5145 52.5964 14.0431 52.9243 13.8035 53.1139C13.6021 53.0726 13.5284 53.0507 13.5063 52.8464C13.6167 52.5117 14.0051 52.2807 14.2955 52.1068Z" fill="#8B8A8A"/>
<path d="M15.426 12.5328C15.7502 12.5215 16.099 12.4745 16.3891 12.6088C16.5422 12.7943 16.5093 12.9116 16.3015 13.0231C15.9674 13.0397 15.3652 13.1266 15.1489 12.8403L15.1667 12.7448C15.2608 12.6163 15.2905 12.6089 15.426 12.5328Z" fill="#8B8A8A"/>
<path d="M16.7732 42.0841C17.106 42.0849 17.6466 41.9726 17.8589 42.2526C17.8706 42.4658 17.859 42.4865 17.6792 42.5582C17.3484 42.5744 16.8579 42.6421 16.5892 42.4812C16.4632 42.2806 16.5807 42.1582 16.7732 42.0841Z" fill="#8B8A8A"/>
<path d="M15.8969 32.3049C16.2089 32.2975 16.9853 32.1865 17.1041 32.5185C17.086 32.6557 17.0572 32.6758 16.9723 32.783C16.6362 32.7919 15.9581 32.9089 15.7839 32.604C15.7866 32.4467 15.8082 32.4318 15.8969 32.3049Z" fill="#8B8A8A"/>
<path d="M23.5038 22.5605C23.8612 22.6002 24.4829 22.7457 24.6138 23.1212C24.6138 23.2603 24.5708 23.2957 24.4895 23.4095C24.4664 23.4114 24.4239 23.4167 24.4057 23.4072C24.19 23.2941 23.4799 23.0504 23.3881 22.8829C23.384 22.7381 23.4311 22.6864 23.5038 22.5605Z" fill="#8B8A8A"/>
<path d="M23.7791 12.7129C24.1141 12.748 24.734 12.901 24.833 13.2714C24.8205 13.4145 24.7845 13.4395 24.6951 13.5512C24.4182 13.5151 23.7519 13.2776 23.6547 12.9905C23.6604 12.8519 23.6966 12.8242 23.7791 12.7129Z" fill="#8B8A8A"/>
<path d="M16.9922 61.7251C17.327 61.715 18.0008 61.6157 18.1616 61.942C18.1457 62.0931 18.1297 62.0935 18.0354 62.2099C17.7416 62.2208 16.9073 62.3363 16.8306 61.9687C16.8688 61.8261 16.8869 61.8257 16.9922 61.7251Z" fill="#8B8A8A"/>
<path d="M21.7212 42.1098C22.0486 42.0956 22.8297 41.9736 22.9778 42.3043C22.9651 42.4457 22.9526 42.4469 22.8761 42.5625C22.5073 42.5738 21.9314 42.7266 21.6825 42.4336C21.6466 42.2934 21.6762 42.2467 21.7212 42.1098Z" fill="#8B8A8A"/>
<path d="M19.5629 3.85352C19.6134 3.86766 19.7335 3.89653 19.7594 3.93832C19.9674 4.27498 19.924 4.97975 19.6831 5.24209L19.4947 5.17437C19.2491 4.89043 19.2686 4.12361 19.5629 3.85352Z" fill="#8B8A8A"/>
<path d="M17.5907 32.308C17.9101 32.2981 18.6866 32.1779 18.8085 32.5165C18.7881 32.6596 18.7671 32.6678 18.6821 32.7832C18.3499 32.7882 17.6392 32.9015 17.4833 32.5939C17.5005 32.433 17.4982 32.4416 17.5907 32.308Z" fill="#8B8A8A"/>
<path d="M50.8647 24.9102C51.2055 25.0283 51.5666 25.4399 51.5946 25.811C51.552 25.9513 51.503 25.9713 51.3871 26.0616C51.1172 26.0331 50.7249 25.4405 50.6766 25.1709C50.7273 25.0032 50.7204 25.0487 50.8647 24.9102Z" fill="#8B8A8A"/>
<path d="M13.1243 77.498C13.3944 77.4907 14.2253 77.3975 14.2564 77.7707C14.1802 77.9114 14.1871 77.9077 14.0619 78.0046C13.8053 78.0139 12.9154 78.1116 12.9276 77.7051C13.0072 77.5883 13.0034 77.5819 13.1243 77.498Z" fill="#8B8A8A"/>
<path d="M23.9846 27.5636C24.1803 27.5419 24.1837 27.5884 24.2701 27.7423C24.2668 28.1497 23.5913 28.1958 23.2692 28.2551C23.1475 28.2355 23.0917 28.1851 22.9894 28.117C22.9503 28.0079 22.9522 28.0626 22.9907 27.9474C23.1732 27.7381 23.6899 27.6641 23.9846 27.5636Z" fill="#8B8A8A"/>
<path d="M13.2686 36.209C13.5578 36.3098 13.9381 36.8514 13.9889 37.1525C13.9566 37.3059 13.931 37.3164 13.8179 37.4216C13.4954 37.2901 13.0799 36.8163 13.0722 36.4573C13.0699 36.3482 13.1941 36.2729 13.2686 36.209Z" fill="#8B8A8A"/>
<path d="M21.9804 57.2258C22.3113 57.2193 22.9984 57.1021 23.166 57.4179C23.1566 57.5787 23.1577 57.5702 23.0733 57.7088C22.7487 57.721 22.0251 57.8401 21.877 57.5131C21.8865 57.3518 21.895 57.3558 21.9804 57.2258Z" fill="#8B8A8A"/>
<path d="M12.9617 25.7668C13.0635 25.7626 13.0878 25.7696 13.1896 25.7862C13.3967 25.9394 13.5882 26.4585 13.6409 26.7114C13.6672 26.837 13.5999 26.8924 13.5314 26.9875C13.4335 26.998 13.4185 26.9897 13.3199 26.9724C13.0161 26.7517 12.766 26.1237 12.9617 25.7668Z" fill="#8B8A8A"/>
<path d="M11.1507 3.08372C11.2883 3.06949 11.3138 3.05246 11.4359 3.11496C11.5074 3.2355 11.5166 3.22829 11.5067 3.36476C11.3778 3.61174 10.9303 3.69125 10.6282 3.79815C10.4966 3.84863 10.396 3.81482 10.2993 3.72196C10.2136 3.30484 10.8582 3.17391 11.1507 3.08372Z" fill="#8B8A8A"/>
<path d="M14.6028 12.8086C14.7645 12.8565 14.7954 12.9003 14.8316 13.053C14.7606 13.3166 14.2421 13.632 13.9922 13.8369C13.8843 13.7942 13.8716 13.7807 13.7747 13.7136C13.587 13.2991 14.2832 12.9378 14.6028 12.8086Z" fill="#8B8A8A"/>
<path d="M13.8245 56.4355C14.1008 56.4684 14.7095 56.8672 14.7859 57.1419C14.7735 57.289 14.7438 57.3053 14.6465 57.4155C14.3069 57.3523 13.7881 57.0702 13.6773 56.718C13.7049 56.5429 13.7004 56.5932 13.8245 56.4355Z" fill="#8B8A8A"/>
<path d="M8.44675 4.67773C9.09466 4.94173 8.38972 5.5237 8.11981 5.82405C7.90404 5.78822 7.85022 5.79187 7.78027 5.5761C7.82883 5.24491 8.20042 4.90047 8.44675 4.67773Z" fill="#8B8A8A"/>
<path d="M24.3965 32.6895C24.7273 32.8005 25.2342 33.2004 25.2623 33.5731C25.1871 33.7312 25.2107 33.6817 25.0293 33.7859L24.9298 33.7627C24.7904 33.6324 24.245 33.1322 24.2027 32.9962C24.2387 32.8506 24.2985 32.8026 24.3965 32.6895Z" fill="#8B8A8A"/>
<path d="M21.7189 47.2683C22.1073 47.2582 22.3835 47.2241 22.7445 47.3753C22.8503 47.4957 22.8324 47.4312 22.8357 47.5625C22.7438 47.6878 22.7492 47.6833 22.6198 47.768C22.3686 47.7789 21.4859 47.8693 21.4904 47.4778C21.5866 47.3498 21.5832 47.3558 21.7189 47.2683Z" fill="#8B8A8A"/>
<path d="M23.4498 61.834C23.7855 61.868 24.3655 61.9823 24.5245 62.3114C24.5436 62.4484 24.5103 62.48 24.4419 62.6008C24.1748 62.6547 23.4478 62.3823 23.3408 62.1302C23.3438 61.9746 23.3639 61.9604 23.4498 61.834Z" fill="#8B8A8A"/>
<path d="M20.6784 37.5706C20.9702 37.5607 21.7881 37.4501 21.8706 37.809C21.8331 37.948 21.8219 37.9469 21.7289 38.0515C21.4231 38.0615 20.6768 38.1633 20.5419 37.838C20.5594 37.6838 20.5762 37.6846 20.6784 37.5706Z" fill="#8B8A8A"/>
<path d="M20.2725 61.7712C20.5906 61.7647 21.2977 61.6703 21.4323 62.0022C21.3966 62.1525 21.4029 62.1436 21.2968 62.2551C21.003 62.2644 20.156 62.3835 20.1003 62.0107C20.1532 61.8688 20.1644 61.8713 20.2725 61.7712Z" fill="#8B8A8A"/>
<path d="M24.9535 42.9609C25.302 43.0546 25.592 43.5684 25.6287 43.9105C25.6404 44.0191 25.5334 44.1002 25.4652 44.1707C25.1263 44.1156 24.7999 43.5036 24.7776 43.1842C24.8168 43.0501 24.8432 43.0481 24.9535 42.9609Z" fill="#8B8A8A"/>
<path d="M34.7617 35.3848C35.0214 35.4667 35.5344 35.9196 35.5626 36.2082C35.5242 36.3477 35.4766 36.3657 35.361 36.454C35.0745 36.3177 34.5241 35.9421 34.5405 35.5875C34.598 35.4586 34.6374 35.4518 34.7617 35.3848Z" fill="#8B8A8A"/>
<path d="M51.552 45.6437C51.8263 45.6429 52.7062 45.544 52.6494 45.9586C52.634 46.0725 52.581 46.0842 52.4971 46.1434C52.1501 46.1418 51.7842 46.2309 51.4786 46.0956C51.3031 45.8937 51.3514 45.7863 51.552 45.6437Z" fill="#8B8A8A"/>
<path d="M24.5158 56.8125C24.605 56.8413 24.7314 56.9098 24.7569 56.9993C24.857 57.3503 24.0339 57.6072 23.8032 57.6644C23.6116 57.6068 23.5425 57.5809 23.5486 57.3795C23.6684 57.1801 24.2556 56.9475 24.5158 56.8125Z" fill="#8B8A8A"/>
<path d="M20.0141 27.737C20.3303 27.73 20.7738 27.6759 21.0247 27.8368C21.1057 27.9828 21.0842 27.904 21.0704 28.0864C20.9672 28.2136 21.0099 28.1729 20.8305 28.2283C20.5373 28.2386 20.0697 28.2981 19.8457 28.1387C19.7343 27.9049 19.8015 27.8263 20.0141 27.737Z" fill="#8B8A8A"/>
<path d="M20.1168 17.9117C20.4214 17.9013 21.1519 17.8121 21.2529 18.1743C21.2049 18.314 21.207 18.3038 21.0978 18.4053C20.7988 18.4143 20.0372 18.5248 19.9462 18.1825C19.983 18.0383 20.0161 18.0185 20.1168 17.9117Z" fill="#8B8A8A"/>
<path d="M25.5785 24.9434C26.0326 25.1247 25.8678 26.0442 25.5693 26.3198C25.0969 26.1552 25.318 25.6085 25.3633 25.2123C25.3821 25.0475 25.4489 25.0251 25.5785 24.9434Z" fill="#8B8A8A"/>
<path d="M16.86 47.2642C17.1865 47.2532 17.5665 47.2058 17.8609 47.3294C18.0086 47.5004 17.9726 47.6184 17.7929 47.7485C17.4181 47.7724 16.7444 47.9288 16.6815 47.4567C16.75 47.3027 16.7007 47.3711 16.86 47.2642Z" fill="#8B8A8A"/>
<path d="M13.4132 65.8926C13.6343 65.9801 14.1469 66.5645 14.1347 66.8458C14.0322 66.9945 14.0966 66.9333 13.9206 67.02C13.7049 66.896 13.5115 66.7368 13.3481 66.5491C13.2294 66.4134 13.1571 66.2841 13.1712 66.1025C13.2658 65.9469 13.2372 65.9947 13.4132 65.8926Z" fill="#8B8A8A"/>
<path d="M13.8709 27.1348C14.1351 27.1546 14.7032 27.4961 14.836 27.7426C14.8593 27.8978 14.8357 27.9186 14.7628 28.0559C14.4507 28.0353 13.8272 27.7986 13.7436 27.4363C13.7168 27.3205 13.8078 27.2269 13.8709 27.1348Z" fill="#8B8A8A"/>
<path d="M35.8807 36.4072C36.1766 36.3646 36.88 36.605 36.9771 36.9456C36.937 37.0662 36.939 37.0719 36.8698 37.1762C36.5488 37.2315 35.9888 36.9995 35.8198 36.7025C35.8013 36.5624 35.8246 36.5352 35.8807 36.4072Z" fill="#8B8A8A"/>
<path d="M24.2745 37.1595C24.4617 37.1498 24.4988 37.1944 24.601 37.3456C24.6271 37.7179 23.9682 37.8864 23.6778 37.9869C23.5869 37.9989 23.5849 37.9866 23.4889 37.9666C23.3834 37.8411 23.4182 37.911 23.385 37.7465C23.4644 37.483 23.9184 37.4255 24.2338 37.1904L24.2745 37.1595Z" fill="#8B8A8A"/>
<path d="M56.9324 27.3418C57.2737 27.3496 57.8107 27.5803 57.9351 27.9234C57.9391 28.0662 57.8986 28.0971 57.8143 28.2136C57.5464 28.2274 56.9499 27.8997 56.8339 27.6387C56.8279 27.4933 56.8583 27.4659 56.9324 27.3418Z" fill="#8B8A8A"/>
<path d="M21.6508 17.9501C21.9712 17.9443 22.6938 17.831 22.8308 18.1482C22.8175 18.3067 22.8182 18.2981 22.7314 18.4331C22.3989 18.4452 21.7515 18.5481 21.5606 18.2617C21.5484 18.1008 21.5683 18.0857 21.6508 17.9501Z" fill="#8B8A8A"/>
<path d="M21.8774 61.7738C22.1294 61.771 23.0337 61.7033 23.0262 62.0911C22.943 62.2046 22.9451 62.1973 22.826 62.2751C22.5495 62.2865 21.7602 62.3947 21.7065 62.0312C21.7616 61.8845 21.7732 61.8849 21.8774 61.7738Z" fill="#8B8A8A"/>
<path d="M38.0208 44.6076C38.319 44.5991 38.8853 44.9533 39.0097 45.2293C39.0148 45.3748 38.988 45.395 38.9077 45.515C38.5508 45.4842 38.0577 45.2447 37.9081 44.9018C37.9186 44.7219 37.9148 44.7778 38.0208 44.6076Z" fill="#8B8A8A"/>
<path d="M24.852 62.5898C25.1806 62.6924 25.5372 63.216 25.5264 63.5653C25.4511 63.7153 25.4819 63.6654 25.3275 63.768C25.0043 63.7003 24.728 63.1653 24.6719 62.861C24.6921 62.7216 24.7493 62.6891 24.852 62.5898Z" fill="#8B8A8A"/>
<path d="M22.592 51.9217C22.8786 51.914 23.5689 51.8467 23.6395 52.2168C23.5746 52.3586 23.58 52.3521 23.4594 52.4506C23.1957 52.4502 22.3526 52.5195 22.3455 52.1414C22.4504 52.0028 22.4423 52.0052 22.592 51.9217Z" fill="#8B8A8A"/>
<path d="M19.4566 29.3945C19.5279 29.4074 19.65 29.4268 19.6863 29.4805C19.8984 29.795 19.8781 30.5321 19.611 30.7751C19.1251 30.6143 19.2439 29.7142 19.4566 29.3945Z" fill="#8B8A8A"/>
<path d="M25.1068 45.9844C25.3182 45.999 25.3899 45.9884 25.492 46.1817C25.4754 46.5287 25.1317 46.8229 24.8896 47.0604C24.7558 47.1037 24.7117 47.094 24.5976 47.0336C24.4763 46.7272 24.9223 46.2592 25.1068 45.9844Z" fill="#8B8A8A"/>
<path d="M37.2022 43.3145C37.4881 43.4214 37.7693 44.0184 37.7745 44.3224C37.6905 44.4764 37.7005 44.4362 37.532 44.5441C37.2632 44.339 36.9192 43.8685 36.9756 43.5134C37.0418 43.3915 37.0819 43.3821 37.2022 43.3145Z" fill="#8B8A8A"/>
<path d="M15.2272 42.0875C15.5257 42.0758 16.1698 41.9854 16.2392 42.3769C16.1833 42.5208 16.0349 42.5568 15.8968 42.5637L15.3696 42.584C15.1924 42.5897 15.0707 42.5872 14.9386 42.4653C14.8872 42.1957 14.9958 42.139 15.2272 42.0875Z" fill="#8B8A8A"/>
<path d="M25.5635 53.8809C25.6378 53.891 25.7352 53.8882 25.78 53.9384C26.0427 54.2347 26.0413 54.9196 25.817 55.1964C25.6794 55.1846 25.6853 55.1919 25.5699 55.1198C25.3897 54.8255 25.3328 54.1581 25.5635 53.8809Z" fill="#8B8A8A"/>
<path d="M25.4355 44.4462C25.5373 44.4429 25.5729 44.449 25.6747 44.4628C25.9818 44.6991 25.8429 45.4423 25.6626 45.7244L25.458 45.6956C25.1647 45.4719 25.2944 44.7222 25.4355 44.4462Z" fill="#8B8A8A"/>
<path d="M54.4262 26.8863C54.6653 26.8626 54.7472 26.8548 54.93 27.0035C54.9822 27.1278 54.9794 27.0648 54.9279 27.1989C54.6657 27.437 54.5377 27.4005 54.1689 27.4215C53.9541 27.4531 53.8807 27.4741 53.7117 27.3155C53.5804 26.9121 54.1741 26.9063 54.4262 26.8863Z" fill="#8B8A8A"/>
<path d="M24.1121 47.0098C24.2783 47.0462 24.2875 47.1042 24.3603 47.2327C24.3623 47.6002 23.6953 47.6939 23.4027 47.7684C23.2198 47.7348 23.1106 47.6598 23.1304 47.4742C23.2702 47.2594 23.8417 47.1176 24.1121 47.0098Z" fill="#8B8A8A"/>
<path d="M21.9027 27.7392C22.1487 27.7373 22.7478 27.7128 22.6885 28.0991C22.5812 28.2119 22.4456 28.2304 22.3002 28.243C21.9981 28.2515 21.5233 28.3137 21.3602 27.9827C21.4131 27.7441 21.7034 27.7413 21.9027 27.7392Z" fill="#8B8A8A"/>
<path d="M12.4287 2.8114C12.6869 2.78104 12.926 2.71389 13.0685 2.98401C13.0363 3.33081 12.766 3.29859 12.492 3.3137C12.2416 3.35633 12.0082 3.43596 11.8567 3.17519C11.8868 2.83193 12.1531 2.84527 12.4287 2.8114Z" fill="#8B8A8A"/>
<path d="M25.1636 13.5957C25.5136 13.6327 25.8402 14.2198 25.8366 14.5473C25.8353 14.658 25.7373 14.7094 25.662 14.7723C25.3565 14.7415 25.2124 14.3772 25.0849 14.1167C24.9532 13.8473 24.9796 13.7967 25.1636 13.5957Z" fill="#8B8A8A"/>
<path d="M14.5873 61.8421C14.7375 61.8283 14.8237 61.8453 14.9365 61.9426L14.9375 62.0471C14.8389 62.2692 14.286 62.5395 14.0468 62.696C13.9354 62.685 13.8199 62.6344 13.7458 62.5477C13.7276 62.1695 14.2886 61.9608 14.5873 61.8421Z" fill="#8B8A8A"/>
<path d="M19.5137 5.53711C19.6917 5.56653 19.6583 5.53597 19.7838 5.63502C19.9379 5.9391 19.9416 6.60099 19.7181 6.87188C19.5382 6.84918 19.5886 6.87877 19.4537 6.78102C19.3015 6.4737 19.3089 5.81253 19.5137 5.53711Z" fill="#8B8A8A"/>
<path d="M15.2224 57.1408C15.559 57.1302 16.1869 57.0285 16.3746 57.3215C16.3824 57.4865 16.3677 57.4873 16.2878 57.6275C15.9749 57.638 15.3202 57.7345 15.1415 57.452C15.1326 57.2636 15.1313 57.3272 15.2224 57.1408Z" fill="#8B8A8A"/>
<path d="M25.3255 16.6426C26.1184 16.7903 25.2542 17.5326 24.987 17.772C24.88 17.7559 24.8729 17.7437 24.7753 17.6922C24.5857 17.3908 25.1102 16.8721 25.3255 16.6426Z" fill="#8B8A8A"/>
<path d="M15.5841 61.7031C15.878 61.6991 16.2453 61.6561 16.4828 61.8251C16.5839 62.0675 16.4517 62.1445 16.2415 62.1935C15.9749 62.204 15.413 62.2782 15.2367 62.0496C15.2262 61.8871 15.2178 61.969 15.3015 61.7992C15.408 61.7084 15.4457 61.7165 15.5841 61.7031Z" fill="#8B8A8A"/>
<path d="M13.668 2.77479C13.9633 2.76817 14.3067 2.72289 14.5596 2.85172C14.7037 3.06416 14.6571 3.15317 14.4597 3.27936C14.1563 3.28395 13.674 3.35867 13.4624 3.17715C13.3669 2.9232 13.4289 2.84094 13.668 2.77479Z" fill="#8B8A8A"/>
<path d="M17.5112 37.5715C17.8275 37.553 18.4704 37.4636 18.6367 37.7665C18.6271 37.9184 18.6058 37.9318 18.5149 38.0506C18.2077 38.0619 17.4839 38.1719 17.3663 37.8391C17.4004 37.6837 17.41 37.6874 17.5112 37.5715Z" fill="#8B8A8A"/>
<path d="M15.2337 2.77629C15.5936 2.76506 15.84 2.73068 16.1648 2.89784C16.2574 3.01936 16.2477 2.95739 16.2363 3.08104C16.1271 3.20833 16.1332 3.20257 15.9832 3.27885C15.6653 3.28613 15.2416 3.36032 15.0269 3.16831C14.9694 3.034 14.9761 3.04246 15.003 2.89694C15.095 2.78317 15.0608 2.81928 15.2337 2.77629Z" fill="#8B8A8A"/>
<path d="M15.5995 17.8792C15.9146 17.8701 16.6239 17.7732 16.7578 18.1097C16.7292 18.2526 16.7141 18.254 16.6224 18.3635C16.2925 18.3724 15.6462 18.4892 15.4998 18.1614C15.5165 18.0049 15.5152 18.0133 15.5995 17.8792Z" fill="#8B8A8A"/>
<path d="M13.3407 62.8008C13.3799 62.8125 13.4465 62.8304 13.4804 62.8502C13.7983 63.0379 13.2946 63.8865 13.1205 64.0425L12.9384 63.9688C12.6623 63.6284 13.054 63.0152 13.3407 62.8008Z" fill="#8B8A8A"/>
<path d="M18.2402 2.77156C18.5465 2.76544 18.8879 2.72002 19.1497 2.861C19.2963 3.06885 19.232 3.1579 19.0417 3.27803C18.7258 3.28154 18.295 3.36152 18.0734 3.17908C18.0083 3.05347 18.0169 3.06012 18.0365 2.91767C18.1266 2.78823 18.0698 2.84484 18.2402 2.77156Z" fill="#8B8A8A"/>
<path d="M16.7474 51.811C17.0338 51.8094 17.6857 51.7369 17.7886 52.0526C17.7453 52.2102 17.7475 52.2017 17.6299 52.3176C17.3125 52.3265 16.8612 52.3857 16.6137 52.2179C16.4947 52.0031 16.5507 51.9119 16.7474 51.811Z" fill="#8B8A8A"/>
<path d="M14.4137 37.3223C14.7261 37.4138 15.3972 37.5146 15.4456 37.8526C15.3684 37.9762 15.379 37.976 15.25 38.0385C14.9313 38.0195 14.3223 37.9538 14.2382 37.5931C14.2702 37.4512 14.3125 37.4259 14.4137 37.3223Z" fill="#8B8A8A"/>
<path d="M16.9783 27.7355C17.2945 27.7278 17.6707 27.6767 17.9351 27.824C18.0236 27.9629 17.9992 27.8867 17.9919 28.066C17.9037 28.2043 17.9617 28.1495 17.7995 28.2222C17.4851 28.2371 17.0923 28.2975 16.831 28.1521C16.743 28.0076 16.7654 28.0861 16.7781 27.9041C16.8697 27.7609 16.8108 27.821 16.9783 27.7355Z" fill="#8B8A8A"/>
<path d="M18.2465 51.8413C18.533 51.832 19.2697 51.7509 19.3062 52.1424C19.2415 52.2709 19.2431 52.2619 19.1324 52.3564C18.8542 52.3641 18.1493 52.4524 18.0792 52.1023C18.1266 51.9458 18.1341 51.9511 18.2465 51.8413Z" fill="#8B8A8A"/>
<path d="M17.3074 17.8887C17.5567 17.882 18.3104 17.831 18.3037 18.2119C18.1841 18.3288 18.1917 18.3283 18.0389 18.3899C17.7231 18.4019 17.3616 18.464 17.1158 18.2931C17.0365 18.1365 17.0557 18.2184 17.0656 18.0359C17.1447 17.9243 17.1752 17.9309 17.3074 17.8887Z" fill="#8B8A8A"/>
<path d="M15.358 27.7324C15.6233 27.724 16.4328 27.6331 16.445 28.0084C16.3833 28.1294 16.3646 28.1316 16.2594 28.2143C16.1471 28.2189 16.0347 28.2226 15.9224 28.2253C15.695 28.2306 15.1587 28.2585 15.1595 27.9442C15.2337 27.8186 15.246 27.8194 15.358 27.7324Z" fill="#8B8A8A"/>
<path d="M15.9631 37.5787C16.2882 37.5628 16.6509 37.5066 16.9397 37.635C17.046 37.7671 17.0144 37.6921 17.0231 37.8736C16.953 38.0174 17.0016 37.9542 16.8521 38.0527C16.5863 38.0607 15.8095 38.1494 15.7568 37.8003C15.8397 37.6648 15.8425 37.6703 15.9631 37.5787Z" fill="#8B8A8A"/>
<path d="M20.9794 51.9199C21.2879 51.8814 21.8982 51.7975 22.0765 52.0938C22.0804 52.2417 22.052 52.2668 21.9761 52.3921C21.637 52.4107 21.1068 52.5153 20.8941 52.2227C20.876 52.0723 20.9029 52.05 20.9794 51.9199Z" fill="#8B8A8A"/>
<path d="M15.23 47.2642C15.5324 47.2565 16.2563 47.1552 16.3569 47.494C16.3222 47.6358 16.3083 47.6367 16.2156 47.7449C15.9029 47.757 15.2317 47.8608 15.1144 47.5236C15.1424 47.3777 15.1488 47.3809 15.23 47.2642Z" fill="#8B8A8A"/>
<path d="M25.1224 26.4863C25.2604 26.5266 25.3073 26.528 25.4078 26.6326C25.5393 26.9701 25.0087 27.4264 24.7669 27.6133C24.6159 27.5845 24.5765 27.5397 24.5107 27.4149C24.5057 27.1892 24.9519 26.7112 25.1224 26.4863Z" fill="#8B8A8A"/>
<path d="M16.7261 2.77165C16.99 2.76585 17.6878 2.69236 17.7121 3.05395C17.6362 3.18823 17.6291 3.18408 17.5115 3.27476C17.2026 3.28115 16.8005 3.36099 16.5705 3.18166C16.4734 2.96465 16.5222 2.86814 16.7261 2.77165Z" fill="#8B8A8A"/>
<path d="M24.0284 52.1035C24.3251 52.1059 24.7276 52.2628 24.8354 52.5651C24.8366 52.7033 24.7988 52.7374 24.7239 52.8533C24.4496 52.799 24.0191 52.6972 23.9012 52.4241C23.897 52.2843 23.9538 52.2235 24.0284 52.1035Z" fill="#8B8A8A"/>
<path d="M25.072 52.7656C25.3658 52.7916 25.5965 53.1976 25.5697 53.4931C25.4676 53.6426 25.4926 53.5985 25.3095 53.6905C25.1274 53.5709 24.8172 53.1421 24.73 52.9375L24.7813 52.8673C24.8976 52.8524 24.966 52.8134 25.072 52.7656Z" fill="#8B8A8A"/>
<path d="M22.3847 37.5773C22.6175 37.57 23.0781 37.5505 23.0829 37.8698C22.9931 37.9927 22.984 37.9869 22.8524 38.0539C22.766 38.0583 22.6795 38.0609 22.5931 38.0616C22.4053 38.0629 22.114 38.0004 22.1288 37.7676C22.2363 37.6417 22.2327 37.6491 22.3847 37.5773Z" fill="#8B8A8A"/>
<path d="M55.2679 42.9124C55.8844 42.8986 55.6947 43.3485 55.5318 43.7363C55.0057 43.6342 55.0998 43.3047 55.2679 42.9124Z" fill="#8B8A8A"/>
<path d="M51.8649 27.0314C50.9498 26.3277 52.2268 25.766 52.121 26.8469C52.0023 26.9134 51.9366 26.9282 51.8649 27.0314Z" fill="#8B8A8A"/>
</svg>
